<?xml version="1.0" standalone="no"?>
<!DOCTYPE svg PUBLIC "-//W3C//DTD SVG 1.1//EN" "http://www.w3.org/Graphics/SVG/1.1/DTD/svg11.dtd" >
<svg xmlns="http://www.w3.org/2000/svg">
<metadata>Generated by IcoMoon</metadata>
<defs>
<font id="ajaxicons" horiz-adv-x="1024">
<font-face units-per-em="1024" ascent="960" descent="-64" />
<missing-glyph horiz-adv-x="1024" />
<glyph unicode="&#x20;" horiz-adv-x="512" d="" />
<glyph unicode="&#xe600;" glyph-name="Arrow2" horiz-adv-x="1638" d="M16.002 928.328c-8.836 11.044-4.658 19.996 9.74 19.996h1586.93c14.212 0 18.654-8.854 9.74-19.996l-787.206-984.010c-8.836-11.042-23.078-11.144-31.994 0l-787.206 984.010z" />
<glyph unicode="&#xe601;" glyph-name="Arrow1" horiz-adv-x="586" d="M579.232 448c0.23-19.032-6.928-38.13-21.452-52.656l-7.824-7.824c-3.294-3.294-6.818-6.206-10.52-8.74l-400.702-400.702c-28.596-28.596-74.85-28.706-103.546-0.012l-7.824 7.824c-28.59 28.59-28.638 74.896 0.012 103.544l358.566 358.566-358.566 358.566c-28.65 28.65-28.6 74.956-0.012 103.544l7.824 7.824c28.692 28.692 74.948 28.584 103.546-0.012l400.702-400.702c3.702-2.536 7.226-5.448 10.52-8.74l7.824-7.824c14.524-14.524 21.682-33.622 21.452-52.656z" />
<glyph unicode="&#xe602;" glyph-name="Facebook" d="M512-64c-282.77 0-512 229.23-512 512s229.23 512 512 512c282.77 0 512-229.23 512-512s-229.23-512-512-512zM549.16 222.72v225.306h66.648l8.832 77.642h-75.48l0.114 38.86c0 20.25 2.062 31.102 33.23 31.102h41.664v77.65h-66.656c-80.064 0-108.246-37.666-108.246-101.004v-46.616h-49.906v-77.642h49.906v-225.298h99.894z" />
<glyph unicode="&#xe603;" glyph-name="Google" d="M512 960c282.77 0 512-229.23 512-512s-229.23-512-512-512c-282.77 0-512 229.23-512 512s229.23 512 512 512zM601.752 288.952c0 41.486-15.462 68.606-62.348 103.728-47.53 34.668-59.144 54.24-13.786 89.318 25.572 19.786 43.486 46.132 43.486 78.672 0 35.442-14.496 67.596-41.746 83.21h38.626l32.884 34.52h-147.15c-91.878 0-136.934-55.078-136.934-115.642 0-61.896 42.476-110.654 125.406-110.654-12.86-25.958-7.7-49.918 13.334-67.058-141.622 0-171.926-62.154-171.926-110.028 0-62.026 71.296-98.89 156.806-98.89 116.89 0 163.346 61.94 163.346 112.826zM550.866 283.748c0-44.948-36.496-80.070-112.050-80.070-59.1 0-101.772 37.422-101.772 82.37 0 44.024 50.068 82.006 109.168 81.36 65.574 0 104.654-40.842 104.654-83.662zM793.702 603.706h-67.898v67.898h-33.938v-67.898h-67.918v-33.938h67.918v-67.896h33.938v67.896h67.898v33.938zM509.982 558.456c-6.86 52.068-40.798 94.802-80.414 96.006-39.68 1.182-66.284-38.69-59.424-90.78 6.838-52.090 44.54-88.478 84.222-89.662 39.616-1.182 62.456 32.324 55.618 84.436z" />
<glyph unicode="&#xe604;" glyph-name="InstagramCopy" horiz-adv-x="1050" d="M525.146 960c282.77 0 512-229.23 512-512s-229.23-512-512-512c-282.77 0-512 229.23-512 512s229.23 512 512 512zM749.428 253.242c0.386 2.092 0.668 4.216 0.996 6.316v376.886c-0.316 2.066-0.586 4.136-0.972 6.194-3.942 21.11-20.6 37.494-41.048 40.418-0.85 0.114-1.678 0.308-2.514 0.464h-361.488c-2.18-0.41-4.374-0.72-6.524-1.23-19.962-4.754-34.732-21.56-37.574-42.706-0.116-0.882-0.29-1.756-0.438-2.636v-377.916c0.412-2.394 0.74-4.808 1.254-7.188 4.414-20.404 21.074-36.222 40.894-38.886 0.958-0.12 1.924-0.316 2.882-0.476h360.498c2.342 0.418 4.69 0.76 7.006 1.284 18.398 4.082 33.432 20.13 37.028 39.478zM348.616 282.134c0-10.028 8.306-18.65 17.896-18.65 105.734-0.006 211.46-0.006 317.19 0 9.682 0 17.942 8.608 17.942 18.71 0.006 69.626 0 139.246 0 208.868v1.446h-43.010c6.072-20.29 7.938-40.93 5.558-61.968-2.394-21.044-8.878-40.628-19.44-58.712-10.568-18.104-24.272-33.102-41.048-45.038-43.486-30.962-100.74-33.688-146.884-6.61-23.326 13.674-41.642 32.74-54.41 57.306-19.048 36.66-22.092 75.134-10.916 115.056-14.268-0.012-28.478-0.012-42.882-0.012v-1.272c0-69.708-0.006-139.416 0.006-209.122zM523.052 352.602c51.014-1.144 92.274 41.468 93.35 93.294 1.1 53.446-40.134 97.592-91.252 97.558-49.972 0.034-90.596-42-91.298-94.006-0.72-53.406 40.174-95.74 89.2-96.844zM701.638 581.498c0.006 14.87 0.006 29.746 0 44.616 0 10.666-8.072 19.154-18.264 19.16-14.184 0.006-28.37 0.014-42.562 0-10.164-0.014-18.264-8.522-18.27-19.188-0.006-14.742-0.044-29.484 0.052-44.232 0.014-2.2 0.412-4.486 1.082-6.572 2.548-7.848 9.424-12.664 17.846-12.704 6.846-0.012 13.688 0.008 20.54 0.008 7.41 0.086 14.846-0.060 22.264 0.128 9.54 0.25 17.312 8.798 17.312 18.784z" />
<glyph unicode="&#xe605;" glyph-name="Menu_close" d="M374.296 448l-338.504-338.504c-28.504-28.504-28.522-74.788 0.012-103.322l34.368-34.37c28.618-28.62 74.794-28.542 103.324-0.012l338.504 338.504 338.504-338.504c28.504-28.504 74.788-28.524 103.322 0.012l34.37 34.37c28.62 28.62 28.542 74.794 0.012 103.322l-338.504 338.504 338.504 338.504c28.504 28.504 28.524 74.788-0.012 103.322l-34.37 34.37c-28.62 28.62-74.794 28.54-103.322 0.012l-338.504-338.504-338.504 338.506c-28.502 28.502-74.788 28.522-103.322-0.012l-34.368-34.37c-28.618-28.618-28.542-74.794-0.012-103.322l338.504-338.504z" />
<glyph unicode="&#xe606;" glyph-name="Menu" horiz-adv-x="1382" d="M126.818 807.512c0 35.172 28.39 63.682 63.524 63.682h987.54c35.084 0 63.522-28.362 63.522-63.682v-39.82c0-35.172-28.39-63.682-63.522-63.682h-987.54c-35.082 0-63.522 28.362-63.522 63.682v39.82zM126.818 467.912c0 35.17 28.39 63.684 63.524 63.684h987.54c35.084 0 63.522-28.362 63.522-63.684v-39.82c0-35.172-28.39-63.682-63.522-63.682h-987.54c-35.082 0-63.522 28.362-63.522 63.682v39.82zM126.818 128.31c0 35.172 28.39 63.682 63.524 63.682h987.54c35.084 0 63.522-28.362 63.522-63.682v-39.82c0-35.172-28.39-63.682-63.522-63.682h-987.54c-35.082 0-63.522 28.362-63.522 63.682v39.82z" />
<glyph unicode="&#xe607;" glyph-name="search" horiz-adv-x="1000" d="M964.712 113.682l-207.172 207.168c40.154 63.278 63.438 138.264 63.438 218.592 0 225.616-183.552 409.168-409.172 409.168-225.616 0-409.168-183.552-409.168-409.168s183.55-409.168 409.168-409.168c76.342 0 147.854 21.036 209.082 57.586l208.998-209.004c89.178-89.174 224.078 45.572 134.826 134.826v0zM129.51 539.442c0 155.658 126.632 282.3 282.296 282.3s282.302-126.64 282.302-282.3c0-155.662-126.64-282.302-282.302-282.302s-282.296 126.64-282.296 282.302v0z" />
<glyph unicode="&#xe608;" glyph-name="Twitter" horiz-adv-x="1050" d="M529.068-64c-282.77 0-512 229.23-512 512s229.23 512 512 512c282.77 0 512-229.23 512-512s-229.23-512-512-512zM522.558 539.048l0.976-16.832-16.278 2.062c-59.25 7.9-111.014 34.692-154.964 79.686l-21.488 22.326-5.534-16.486c-11.72-36.752-4.232-75.566 20.184-101.67 13.022-14.426 10.092-16.488-12.37-7.9-7.812 2.748-14.65 4.81-15.3 3.778-2.278-2.404 5.534-33.662 11.72-46.026 8.464-17.174 25.718-34.004 44.6-43.966l15.952-7.9-18.882-0.342c-18.23 0-18.882-0.342-16.928-7.558 6.512-22.326 32.23-46.026 60.88-56.332l20.184-7.212-17.58-10.99c-26.044-15.8-56.646-24.73-87.248-25.418-14.65-0.342-26.694-1.716-26.694-2.748 0-3.434 39.718-22.67 62.832-30.226 69.344-22.326 151.708-12.708 213.564 25.418 43.95 27.134 87.9 81.062 108.41 133.27 11.068 27.822 22.138 78.656 22.138 103.044 0 15.8 0.976 17.86 19.208 36.752 10.744 10.99 20.836 23.012 22.788 26.448 3.256 6.526 2.93 6.526-13.674 0.688-27.672-10.304-31.578-8.93-17.904 6.526 10.092 10.99 22.138 30.914 22.138 36.752 0 1.030-4.884-0.688-10.418-3.778-5.86-3.436-18.882-8.586-28.65-11.678l-17.58-5.838-15.952 11.336c-8.79 6.182-21.162 13.052-27.672 15.112-16.602 4.81-41.996 4.122-56.972-1.374-40.694-15.456-66.414-55.3-63.482-98.922 0 0-2.93 43.622 0 0z" />
<glyph unicode="&#xe609;" glyph-name="user" d="M880.198 195.336c-143.394 33.076-276.872 62.038-212.23 183.914 196.77 370.972 52.158 569.36-155.628 569.36-211.88 0-352.934-206.004-155.628-569.36 66.582-122.618-71.916-151.548-212.23-183.914-143.336-33.056-132.312-108.63-132.312-245.75h1000.334c0 137.124 11.024 212.696-132.308 245.75v0z" />
<glyph unicode="&#xe60a;" glyph-name="Youtube" horiz-adv-x="1365" d="M541.696 298.1l-0.043 386.337 368.896-193.835-368.853-192.503zM1351.68 751.384c0 0-13.355 94.747-54.272 136.471-51.925 54.786-110.123 55.044-136.789 58.223-191.061 13.922-477.653 13.922-477.653 13.922h-0.597c0 0-286.592 0-477.653-13.922-26.709-3.18-84.864-3.438-136.832-58.223-40.917-41.723-54.229-136.471-54.229-136.471s-13.653-111.291-13.653-222.538v-104.33c0-111.291 13.653-222.538 13.653-222.538s13.312-94.747 54.229-136.471c51.968-54.786 120.192-53.067 150.571-58.782 109.227-10.57 464.213-13.836 464.213-13.836s286.891 0.43 477.952 14.352c26.667 3.223 84.864 3.481 136.789 58.266 40.917 41.723 54.272 136.471 54.272 136.471s13.653 111.248 13.653 222.538v104.33c0 111.248-13.653 222.538-13.653 222.538v0z" />
<glyph unicode="&#xe60b;" glyph-name="check" horiz-adv-x="1196" d="M434.162 384.452l-249.302 249.36-184.86-184.898 434.178-434.296 760.488 760.552-184.944 184.828-575.558-575.548z" />
<glyph unicode="&#xe60c;" glyph-name="filtericon" horiz-adv-x="974" d="M949.244 838.794c47.832 102.888-339.416 121.206-472.616 121.206-127.146 0-520.448-18.318-472.618-121.206 22.016-47.36 386.938-551.092 386.938-551.092v-223.816l174.638-127.886v351.704c0 0 361.642 503.732 383.658 551.092v0zM476.628 897.048c204.33 0 392.128-27.248 392.128-58.132s-187.798-55.916-392.128-55.916c-204.33 0-387.202 25.032-387.202 55.916s182.872 58.132 387.202 58.132v0z" />
<glyph unicode="&#xe60d;" glyph-name="Arrow-left" horiz-adv-x="652" d="M30.982 448c-2.030 27.8 7.534 56.248 28.528 77.242l378.858 378.858c38.642 38.64 101.106 38.826 140.12-0.188 38.746-38.746 38.482-101.826 0.188-140.122l-315.79-315.79 315.79-315.79c38.294-38.294 38.558-101.376-0.188-140.12-39.016-39.016-101.48-38.83-140.12-0.188l-378.858 378.856c-20.996 20.996-30.56 49.442-28.528 77.242z" />
<glyph unicode="&#xe60e;" glyph-name="Arrow-down" horiz-adv-x="1002" d="M500.5 161.268c19.032-0.23 38.13 6.928 52.656 21.452l7.824 7.824c3.294 3.294 6.206 6.818 8.74 10.52l400.702 400.702c28.596 28.596 28.706 74.85 0.012 103.544l-7.824 7.824c-28.59 28.59-74.896 28.636-103.544-0.012l-358.566-358.566-358.566 358.566c-28.65 28.648-74.954 28.6-103.546 0.012l-7.824-7.824c-28.694-28.692-28.586-74.948 0.012-103.544l400.702-400.702c2.536-3.702 5.448-7.226 8.74-10.52l7.824-7.824c14.524-14.524 33.622-21.682 52.656-21.452z" />
<glyph unicode="&#xe60f;" glyph-name="audio" horiz-adv-x="684" d="M170.184 490.524v297.93c0 91.712 74.018 166.060 165.32 166.060 91.306 0 165.322-74.348 165.322-166.060v-297.93c0-91.712-74.014-166.058-165.322-166.058-91.304 0-165.32 74.348-165.32 166.058v0zM573.762 575.998v-85.472c0-131.96-106.882-239.32-238.258-239.32s-238.258 107.36-238.258 239.322v85.472h-97.248v-85.472c0-167.114 121.732-306.182 280.802-332.5v-111.544h-139.794v-97.682h388.99v97.682h-139.794v111.544c159.072 26.318 280.802 165.384 280.802 332.5v85.472h-97.248z" />
<glyph unicode="&#xe610;" glyph-name="play" horiz-adv-x="854" d="M837.818 448l-837.818 512v-1024l837.818 512z" />
<glyph unicode="&#xe611;" glyph-name="social" d="M838.274 311.54c-54.544 0-103.602-23.524-137.568-60.966l-332.328 164.076c1.97 10.826 3.050 21.954 3.050 33.356 0 2.294-0.092 4.568-0.176 6.846l343.794 180.544c32.788-29.116 75.936-46.826 123.23-46.826 102.572 0 185.722 83.148 185.722 185.712 0 102.57-83.148 185.718-185.722 185.718-102.568 0-185.712-83.148-185.712-185.718 0-7.66 0.52-15.19 1.426-22.614l-334.036-175.414c-33.808 35.382-81.43 57.462-134.242 57.462-102.572 0-185.718-83.148-185.718-185.716 0-102.56 83.144-185.712 185.718-185.712 43.198 0 82.926 14.794 114.478 39.534l352.428-173.992c-0.010-0.674-0.054-1.334-0.054-2.016 0-102.568 83.144-185.716 185.712-185.716 102.572 0 185.722 83.152 185.722 185.716-0.004 102.582-83.152 185.726-185.726 185.726v0z" />
<glyph unicode="&#xe612;" glyph-name="text-file" horiz-adv-x="854" d="M624.366 163.884h-417.608v74.562h417.608v-74.562zM624.288 301.618h-417.528v74.562h417.528v-74.562zM624.288 439.148h-417.528v74.562h417.528v-74.562zM520.702 860.582v-213.126h213.41v-612.038h-634.694v825.164h421.284zM582.836 960h-582.836v-1024h833.528v773.592l-250.692 250.408z" />
<glyph unicode="&#xe613;" glyph-name="link-icon" d="M273.936 582.384c17.992 17.99 37.942 32.824 59.158 44.52 118.242 65.182 269.902 30.512 345.904-84.748l-91.976-91.974c-26.388 60.192-91.862 94.404-157.032 79.826-24.534-5.488-47.85-17.722-66.902-36.776l-176.324-176.32c-53.526-53.526-53.524-140.624 0.004-194.15 53.526-53.526 140.62-53.526 194.146 0l54.354 54.352c49.416-19.606 102.452-27.458 154.764-23.534l-119.966-119.966c-102.85-102.85-269.6-102.85-372.452 0s-102.852 269.6-0.002 372.452l176.32 176.314zM553.932 862.382l-119.966-119.966c52.322 3.92 105.348-3.932 154.766-23.538l54.352 54.354c53.528 53.528 140.624 53.528 194.152 0s53.528-140.624 0-194.152l-176.322-176.316c-53.688-53.688-140.922-53.236-194.146 0-12.412 12.41-23.13 27.864-29.786 43.044l-91.972-91.972c9.662-14.654 19.712-27.326 32.608-40.224 33.284-33.284 75.632-58.074 124.354-69.794 63.15-15.198 130.81-6.774 188.938 25.274 21.216 11.698 41.168 26.53 59.158 44.52l176.318 176.316c102.85 102.85 102.85 269.6 0.002 372.454-102.852 102.85-269.602 102.85-372.456 0v0z" />
<glyph unicode="&#xe614;" glyph-name="googleplus-icon" d="M647.076 177.3c0 81.198-30.264 134.278-122.028 203.014-93.026 67.854-115.756 106.158-26.982 174.812 50.048 38.726 85.112 90.288 85.112 153.976 0 69.37-28.37 132.298-81.702 162.858h75.6l64.36 67.558h-288c-179.82 0-268.006-107.8-268.006-226.334 0-121.144 83.134-216.568 245.444-216.568-25.172-50.806-15.070-97.698 26.098-131.246-277.182 0-336.49-121.65-336.49-215.348 0-121.396 139.538-193.544 306.9-193.544 228.776 0 319.696 121.228 319.696 220.82zM547.484 167.114c0-87.974-71.432-156.712-219.306-156.712-115.672 0-199.184 73.242-199.184 161.216 0 86.164 97.992 160.5 213.664 159.238 128.342 0 204.824-79.934 204.824-163.742zM1022.756 793.332v-66.424h-132.888v-132.888h-66.424v132.888h-132.93v66.424h132.93v132.888h66.424v-132.888h132.888zM467.466 704.768c13.386-101.99-31.318-167.572-108.854-165.258-77.662 2.316-151.45 73.538-164.836 175.486-13.428 101.948 38.64 179.99 116.302 177.676 77.536-2.358 143.958-85.996 157.386-187.904z" />
<glyph unicode="&#xe615;" glyph-name="twitter-icon" d="M499.932 615.514l-35.514 4.496c-129.274 17.236-242.212 75.692-338.104 173.864l-46.88 48.712-12.076-35.972c-25.57-80.188-9.234-164.872 44.040-221.826 28.412-31.476 22.020-35.972-26.99-17.236-17.046 5.996-31.964 10.492-33.384 8.244-4.972-5.246 12.076-73.442 25.57-100.42 18.468-37.47 56.114-74.192 97.312-95.926l34.806-17.236-41.198-0.75c-39.778 0-41.198-0.75-36.936-16.486 14.206-48.712 70.32-100.422 132.826-122.904l44.038-15.738-38.356-23.98c-56.824-34.472-123.592-53.958-190.36-55.456-31.964-0.75-58.244-3.746-58.244-5.996 0-7.494 86.658-49.462 137.088-65.948 151.294-48.712 331-27.728 465.956 55.456 95.89 59.204 191.782 176.86 236.53 290.772 24.15 60.702 48.3 171.616 48.3 224.824 0 34.472 2.13 38.968 41.908 80.186 23.44 23.98 45.46 50.212 49.722 57.706 7.102 14.24 6.394 14.24-29.832 1.5-60.376-22.482-68.9-19.486-39.068 14.238 22.020 23.98 48.3 67.448 48.3 80.188 0 2.248-10.654-1.498-22.73-8.244-12.784-7.494-41.198-18.736-62.506-25.48l-38.356-12.74-34.804 24.73c-19.178 13.488-46.17 28.478-60.376 32.974-36.226 10.492-91.63 8.994-124.302-2.998-88.788-33.724-144.902-120.654-138.51-215.832l2.13-36.722z" />
<glyph unicode="&#xe616;" glyph-name="facebook-icon" d="M607.826-32.234v491.578h145.412l19.27 169.4h-164.682l0.246 84.788c0 44.182 4.498 67.856 72.5 67.856h90.904v169.42h-145.432c-174.686 0-236.17-82.178-236.17-220.374v-101.706h-108.888v-169.4h108.888v-491.558h217.952z" />
<glyph unicode="&#xe617;" glyph-name="audio-icon" d="M242.658 256.78h-149.634c-40.064 0-72.544 32.476-72.544 72.544v256.356c0 40.070 32.476 72.548 72.544 72.548h149.634v-401.448zM324.192 676.222v-437.434l350.598-201.858v841.15l-350.598-201.858zM1003.388 413.504h-185.64v87.218h185.77l-0.132-87.218zM811.966 600.518l-49.006 72.14 157.26 106.838 49.014-72.146-157.268-106.832zM919.63 135.51l-157.324 106.758 48.968 72.158 157.582-106.918-49.226-71.998z" />
<glyph unicode="&#xe618;" glyph-name="printer-icon" d="M875.868 729.55v209.97h-727.736v-209.97h-127.652v-484.362h127.652v-288.708h727.736v288.708h127.652v484.362h-127.652zM780.428 51.922h-536.854v307.798h536.854v-307.798zM780.428 729.55h-536.854v114.528h536.854v-114.528zM908.876 608.418c-15.942 0-28.87 12.928-28.87 28.872s12.928 28.872 28.87 28.872c15.942 0 28.874-12.926 28.874-28.872s-12.93-28.872-28.874-28.872v0zM608.238 151.682h-303.478v53.722h303.478v-53.722zM721.97 250.772h-417.21v53.722h417.21v-53.722z" />
<glyph unicode="&#xe900;" glyph-name="tv" horiz-adv-x="1252" d="M1137.778 960h-1024c-62.578 0-113.778-51.2-113.778-113.778v-682.667c0-62.578 51.2-113.778 113.778-113.778h284.444v-113.778h455.111v113.778h284.444c62.578 0 113.209 51.2 113.209 113.778l0.569 682.667c0 62.578-51.2 113.778-113.778 113.778v0zM1137.778 163.556h-1024v682.667h1024v-682.667zM555.9 723.4v-69h-123v-360h-79.5v360h-123v69h325.5zM1050.46 723.4l-188.1-429h-85.5l-180 429h94.5l132.9-328.5 132.599 328.5h93.6z" />
<glyph unicode="&#xe901;" glyph-name="world" d="M511.488 960c-282.624 0-511.488-229.376-511.488-512s228.864-512 511.488-512c283.136 0 512.512 229.376 512.512 512s-229.376 512-512.512 512v0zM866.304 652.8h-151.040c-16.384 64-39.936 125.44-70.656 182.272 94.208-32.256 172.544-97.792 221.696-182.272v0zM512 855.552c42.496-61.44 75.776-129.536 97.792-202.752h-195.584c22.016 73.216 55.296 141.312 97.792 202.752v0zM115.712 345.6c-8.192 32.768-13.312 67.072-13.312 102.4s5.12 69.632 13.312 102.4h173.056c-4.096-33.792-7.168-67.584-7.168-102.4s3.072-68.608 7.168-102.4h-173.056zM157.696 243.2h151.040c16.384-64 39.936-125.44 70.656-182.272-94.208 32.256-172.544 97.28-221.696 182.272v0zM308.736 652.8h-151.040c49.152 84.992 127.488 150.016 221.696 182.272-30.72-56.832-54.272-118.272-70.656-182.272v0zM512 40.448c-42.496 61.44-75.776 129.536-97.792 202.752h195.584c-22.016-73.216-55.296-141.312-97.792-202.752v0zM631.808 345.6h-239.616c-4.608 33.792-8.192 67.584-8.192 102.4s3.584 69.12 8.192 102.4h239.616c4.608-33.28 8.192-67.584 8.192-102.4s-3.584-68.608-8.192-102.4v0zM644.608 60.928c30.72 56.832 54.272 118.272 70.656 182.272h151.040c-49.152-84.48-127.488-150.016-221.696-182.272v0zM735.232 345.6c4.096 33.792 7.168 67.584 7.168 102.4s-3.072 68.608-7.168 102.4h173.056c8.192-32.768 13.312-67.072 13.312-102.4s-5.12-69.632-13.312-102.4h-173.056z" />
<glyph unicode="&#xe902;" glyph-name="ArrowDown-redCopy2" horiz-adv-x="626" d="M612.217 448c0.875-22.889-7.456-46.092-25.077-63.713l-405.916-405.916c-33.373-33.373-87.48-33.374-120.746-0.109l-19.673 19.673c-33.313 33.313-33.471 87.165 0.109 120.746l329.32 329.32-329.32 329.32c-33.58 33.58-33.422 87.433-0.109 120.746l19.673 19.673c33.265 33.265 87.373 33.264 120.746-0.109l405.916-405.916c17.621-17.621 25.952-40.825 25.077-63.713z" />
<glyph unicode="&#xe903;" glyph-name="play-alt" d="M512 960c-282.752 0-512-229.248-512-512s229.248-512 512-512 512 229.248 512 512-229.248 512-512 512zM320 192v512l512.256-256-512.256-256z" />
<glyph unicode="&#xe904;" glyph-name="Pluswhite" d="M609.524 545.524v316.952c0 53.856-43.667 97.524-97.524 97.524s-97.524-43.667-97.524-97.524v-316.952h-316.952c-53.856 0-97.524-43.667-97.524-97.524s43.667-97.524 97.524-97.524h316.952v-316.952c0-53.856 43.667-97.524 97.524-97.524s97.524 43.667 97.524 97.524v316.952h316.952c53.856 0 97.524 43.667 97.524 97.524s-43.667 97.524-97.524 97.524h-316.952z" />
<glyph unicode="&#xe905;" glyph-name="minus" d="M97.524 545.523c-53.857 0-97.523-43.666-97.523-97.523s43.666-97.523 97.523-97.523h828.953c53.857 0 97.523 43.666 97.523 97.523s-43.666 97.523-97.523 97.523h-828.953z" />
<glyph unicode="&#xe906;" glyph-name="GooglePlus" horiz-adv-x="1536" d="M1366.943 558.373v169.361h-120.755v-169.361h-173.887v-120.972h173.887v-174.2h120.755v174.2h169.057v120.972h-169.057zM487.849 568.050v-193.555c0 0 187.431 0.252 263.748 0.252-41.327-125.477-105.588-193.807-263.748-193.807-160.058 0-284.981 129.987-284.981 290.333s124.923 290.333 284.981 290.333c84.625 0 139.278-29.798 189.411-71.33 40.129 40.201 36.777 45.931 138.873 142.52-86.668 79.029-201.858 127.205-328.284 127.205-269.433 0-487.849-218.809-487.849-488.727 0-269.913 218.416-488.727 487.849-488.727 402.727 0 501.161 351.303 468.528 585.505h-468.528z" />
<glyph unicode="&#xe907;" glyph-name="Instagram" horiz-adv-x="1081" d="M95.319 664.5c0 110.564 89.61 200.18 200.179 200.18h438.451c110.548 0 200.179-89.637 200.179-200.18v-433.001c0-110.564-89.61-200.18-200.179-200.18h-438.451c-110.548 0-200.179 89.637-200.179 200.18v433.001zM0 664.5v-433.001c0-163.185 132.306-295.5 295.498-295.5h438.451c163.213 0 295.498 132.293 295.498 295.5v433.001c0 163.185-132.306 295.5-295.498 295.5h-438.451c-163.213 0-295.498-132.293-295.498-295.5v0zM516.085 172.936c149.657 0 270.979 121.321 270.979 270.979s-121.321 270.979-270.979 270.979c-149.657 0-270.979-121.321-270.979-270.979s121.321-270.979 270.979-270.979zM516.085 268.255c-97.014 0-175.66 78.645-175.66 175.66s78.645 175.66 175.66 175.66c97.014 0 175.66-78.645 175.66-175.66s-78.645-175.66-175.66-175.66zM789.787 656.34c36.098 0 65.362 29.263 65.362 65.362s-29.263 65.362-65.362 65.362c-36.098 0-65.362-29.263-65.362-65.362s29.263-65.362 65.362-65.362z" />
<glyph unicode="&#xe908;" glyph-name="whatsapp" d="M511.851 960v-0.008h0.297c282.257 0 511.851-229.659 511.851-511.996 0-282.328-229.595-511.996-511.851-511.996-104.118 0-200.712 30.998-281.654 84.575l-196.797-62.896 63.796 190.226c-61.384 84.286-97.494 188.128-97.494 300.099 0 282.336 229.595 511.996 511.851 511.996zM348.188 729.375c-9.222 23.723-16.211 24.622-30.181 25.232-4.757 0.297-10.058 0.593-15.935 0.593-18.175 0-37.178-5.704-48.64-18.316-13.97-15.315-48.632-51.049-48.632-124.329s49.752-144.153 56.457-154.069c6.989-9.899 96.996-162.46 236.748-224.637 109.286-48.65 141.716-44.141 166.588-38.437 36.334 8.408 81.898 37.25 93.36 72.076 11.462 34.843 11.462 64.576 8.101 70.881-3.353 6.306-12.582 9.899-26.552 17.417-13.97 7.509-81.898 43.548-94.756 48.353-12.582 5.102-24.596 3.297-34.094-11.12-13.418-20.121-26.552-40.547-37.178-52.854-8.385-9.611-22.088-10.815-33.542-5.704-15.375 6.899-58.414 23.13-111.527 73.882-41.091 39.335-69.040 88.282-77.141 102.995-8.109 15.010-0.836 23.732 5.585 31.834 6.989 9.315 13.694 15.917 20.683 24.63 6.989 8.704 10.902 13.213 15.375 23.427 4.757 9.908 1.396 20.121-1.956 27.63s-31.301 80.789-42.763 110.513z" />
<glyph unicode="&#xe909;" glyph-name="snapchat-ghost" horiz-adv-x="951" d="M484.571 877.714c102.857 1.143 188-56.571 230.857-149.143 13.143-28 15.429-71.429 15.429-102.286 0-36.571-2.857-72.571-5.143-109.143 4.571-2.286 10.857-4 16-4 20.571 0 37.714 15.429 58.286 15.429 19.429 0 47.429-13.714 47.429-36.571 0-54.857-114.857-44.571-114.857-92.571 0-8.571 3.429-16.571 6.857-24.571 27.429-60 79.429-117.714 141.143-143.429 14.857-6.286 29.714-9.714 45.714-13.143 10.286-2.286 16-9.714 16-20 0-38.857-98.857-54.857-125.143-58.857-11.429-17.714-2.857-59.429-33.143-59.429-23.429 0-46.857 7.429-72 7.429-12 0-24-0.571-35.429-2.857-68-11.429-90.857-84.571-202.286-84.571-107.429 0-133.143 73.143-199.429 84.571-12 2.286-24 2.857-36 2.857-25.714 0-50.286-8.571-70.857-8.571-32 0-22.286 42.286-34.286 60.571-26.286 4-125.143 20-125.143 58.857 0 10.286 5.714 17.714 16 20 16 3.429 30.857 6.857 45.714 13.143 61.143 25.143 114.286 83.429 141.143 143.429 3.429 8 6.857 16 6.857 24.571 0 48-115.429 38.857-115.429 92 0 22.286 26.286 36.571 46.286 36.571 17.714 0 35.429-14.857 57.714-14.857 6.286 0 12.571 1.143 18.286 4-2.286 36-5.143 72-5.143 108.571 0 30.857 2.286 74.857 15.429 102.857 50.286 108.571 135.429 148 249.143 149.143z" />
</font>
</defs>
</svg>
