<?xml version="1.0" encoding="UTF-8"?>
<svg width="131px" height="440px" viewBox="0 0 131 440" version="1.1" xmlns="http://www.w3.org/2000/svg" xmlns:xlink="http://www.w3.org/1999/xlink">
    <!-- Generator: Sketch 46.2 (44496) - http://www.bohemiancoding.com/sketch -->
    <title>Andreas kruizen</title>
    <desc>Created with Sketch.</desc>
    <defs>
        <linearGradient x1="50%" y1="100%" x2="50%" y2="0%" id="linearGradient-1">
            <stop stop-color="#333333" offset="0%"></stop>
            <stop stop-color="#333333" stop-opacity="0.75" offset="100%"></stop>
        </linearGradient>
    </defs>
    <g id="Page-1" stroke="none" stroke-width="1" fill="none" fill-rule="evenodd">
        <g id="Andreas-kruizen" transform="translate(0.000000, -1.000000)" fill="url(#linearGradient-1)" fill-rule="nonzero">
            <path d="M26.9342799,0.999386672 L65.6551183,39.7202251 L104.375497,0.999846668 L130.189389,26.813739 L91.4690107,65.5341174 L130.189849,104.254956 L103.207219,131.237586 L64.4863809,92.5167472 L26.9350465,130.068082 L1.12115424,104.254189 L38.7210051,66.6543384 L0.000166643712,27.9334999 L26.9342799,0.999386672 Z M26.9342799,155.880901 L65.6551183,194.601739 L104.375497,155.881361 L130.189389,181.695253 L91.4690107,220.415631 L130.189849,259.13647 L103.207219,286.119099 L64.4863809,247.398261 L26.9350465,284.949595 L1.12115424,259.135703 L38.7210051,221.535852 L0.000166643712,182.815014 L26.9342799,155.880901 Z M26.9342799,310.762414 L65.6551183,349.483253 L104.375497,310.762874 L130.189389,336.576767 L91.4690107,375.297145 L130.189849,414.017984 L103.207219,441.000613 L64.4863809,402.279775 L26.9350465,439.831109 L1.12115424,414.017217 L38.7210051,376.417366 L0.000166643712,337.696528 L26.9342799,310.762414 Z"></path>
        </g>
    </g>
</svg>