<?xml version="1.0" encoding="utf-8"?>
<!-- Generator: Adobe Illustrator 18.1.0, SVG Export Plug-In . SVG Version: 6.00 Build 0)  -->
<!DOCTYPE svg PUBLIC "-//W3C//DTD SVG 1.1//EN" "http://www.w3.org/Graphics/SVG/1.1/DTD/svg11.dtd">
<svg version="1.1" id="Layer_1" xmlns="http://www.w3.org/2000/svg" xmlns:xlink="http://www.w3.org/1999/xlink" x="0px" y="0px"
	 viewBox="0 0 24 24" enable-background="new 0 0 24 24" xml:space="preserve">
<path fill="#FFFFFF" d="M11.8,22.5L11.8,22.5C6,22.5,1.3,17.8,1.3,12v0C1.3,6.2,6,1.5,11.8,1.5h0c5.8,0,10.5,4.7,10.5,10.5v0
	C22.3,17.8,17.6,22.5,11.8,22.5z"/>
<path d="M12,0C5.4,0,0,5.4,0,12c0,6.6,5.4,12,12,12c6.6,0,12-5.4,12-12C24,5.4,18.6,0,12,0z M20.1,18.3l-0.2-1.4l-3.7,0.8l-2,3.3
	l1.4,0.7c-1.1,0.4-2.3,0.6-3.6,0.6c-1.3,0-2.5-0.2-3.6-0.6L9.8,21l-2-3.3l-3.7-0.8l-0.2,1.4c-1.4-1.7-2.2-3.9-2.2-6.3
	c0-0.1,0-0.2,0-0.3l1,1l2.6-2.9L4.9,6L3.4,6.3c1.3-2,3.4-3.5,5.8-4.2L8.5,3.4L12,4.9l3.5-1.5l-0.7-1.3c2.4,0.7,4.4,2.2,5.8,4.2
	L19.1,6l-0.4,3.8l2.6,2.9l1-1c0,0.1,0,0.2,0,0.3C22.3,14.4,21.5,16.6,20.1,18.3z M12,8l4.2,3.1L14.6,16H9.4l-1.6-4.9L12,8z"/>
</svg>
