<?xml version="1.0" encoding="utf-8"?>
<!-- Generator: Adobe Illustrator 18.1.0, SVG Export Plug-In . SVG Version: 6.00 Build 0)  -->
<!DOCTYPE svg PUBLIC "-//W3C//DTD SVG 1.1//EN" "http://www.w3.org/Graphics/SVG/1.1/DTD/svg11.dtd">
<svg version="1.1" id="Layer_1" xmlns="http://www.w3.org/2000/svg" xmlns:xlink="http://www.w3.org/1999/xlink" x="0px" y="0px"
	 viewBox="0 0 1000 1000" enable-background="new 0 0 1000 1000" xml:space="preserve">
<path fill="#FFFFFF" d="M491.7,937.5L491.7,937.5C250,937.5,54.2,741.7,54.2,500l0,0C54.2,258.3,250,62.5,491.7,62.5l0,0
	c241.7,0,437.5,195.8,437.5,437.5l0,0C929.2,741.7,733.3,937.5,491.7,937.5z"/>
<path d="M500,0C225,0,0,225,0,500s225,500,500,500s500-225,500-500S775,0,500,0z M837.5,762.5l-8.3-58.3L675,737.5L591.7,875
	l58.3,29.2c-45.8,16.7-95.8,25-150,25s-104.2-8.3-150-25l58.3-29.2L325,737.5l-154.2-33.3l-8.3,58.3C104.2,691.7,70.8,600,70.8,500
	c0-4.2,0-8.3,0-12.5l41.7,41.7l108.3-120.8L204.2,250l-62.5,12.5c54.2-83.3,141.7-145.8,241.7-175l-29.2,54.2L500,204.2l145.8-62.5
	l-29.2-54.2c100,29.2,183.3,91.7,241.7,175L795.8,250l-16.7,158.3l108.3,120.8l41.7-41.7c0,4.2,0,8.3,0,12.5
	C929.2,600,895.8,691.7,837.5,762.5z M500,333.3l175,129.2l-66.7,204.2H391.7L325,462.5L500,333.3z"/>
<circle fill="#E11416" cx="744.5" cy="745.5" r="240.5"/>
<text transform="matrix(1 0 0 1 616 873.9335)" fill="#FFFFFF" font-family="'Montserrat-Bold'" font-size="452.9894">x</text>
</svg>
