<?xml version="1.0" encoding="utf-8"?>
<!-- Generator: Adobe Illustrator 18.1.1, SVG Export Plug-In . SVG Version: 6.00 Build 0)  -->
<svg version="1.1" id="Layer_1" xmlns="http://www.w3.org/2000/svg" xmlns:xlink="http://www.w3.org/1999/xlink" x="0px" y="0px"
	 viewBox="0 0 595.3 841.9" enable-background="new 0 0 595.3 841.9" xml:space="preserve">
<path fill="#FFFFFF" d="M292.7,681.4L292.7,681.4C148.8,681.4,32.3,564.8,32.3,421l0,0c0-143.9,116.6-260.4,260.4-260.4l0,0
	c143.9,0,260.4,116.6,260.4,260.4l0,0C553.1,564.8,436.5,681.4,292.7,681.4z"/>
<path d="M297.6,123.3C133.9,123.3,0,257.2,0,420.9s133.9,297.6,297.6,297.6s297.6-133.9,297.6-297.6S461.3,123.3,297.6,123.3z
	 M498.5,577.2l-4.9-34.7l-91.8,19.8l-49.6,81.9l34.7,17.4c-27.3,9.9-57,14.9-89.3,14.9s-62-4.9-89.3-14.9l34.7-17.4l-49.6-81.9
	l-91.8-19.8l-4.9,34.7C62,535.1,42.1,480.5,42.1,420.9c0-2.5,0-4.9,0-7.4L67,438.3l64.5-71.9l-9.9-94.3l-37.2,7.4
	c32.3-49.6,84.4-86.8,143.9-104.2l-17.4,32.3l86.8,37.2l86.8-37.2L367,175.4c59.5,17.4,109.1,54.6,143.9,104.2l-37.2-7.4l-9.9,94.2
	l64.5,71.9l24.8-24.8c0,2.5,0,4.9,0,7.4C553.1,480.5,533.3,535.1,498.5,577.2z M297.6,321.7l104.2,76.9l-39.7,121.6H233.2
	l-39.7-121.6L297.6,321.7z"/>
<rect x="300.2" y="378.9" fill="#FFFFFF" stroke="#000000" stroke-width="3" stroke-miterlimit="10" width="286.2" height="362"/>
<text transform="matrix(1 0 0 1 364 658.89)" fill="#1922CE" font-family="'Roboto-Regular'" font-size="272">P</text>
<text transform="matrix(1 0 0 1 297.6399 708.265)" fill="#E11416" font-family="'Montserrat-Light'" font-size="549.2829">x</text>
</svg>
