<?xml version="1.0" encoding="UTF-8"?>
<svg width="16px" height="20px" viewBox="0 0 16 20" version="1.1" xmlns="http://www.w3.org/2000/svg" xmlns:xlink="http://www.w3.org/1999/xlink">
    <!-- Generator: Sketch 46.2 (44496) - http://www.bohemiancoding.com/sketch -->
    <title>Group</title>
    <desc>Created with Sketch.</desc>
    <defs>
        <filter x="-28.6%" y="-28.6%" width="214.3%" height="228.6%" filterUnits="objectBoundingBox" id="filter-1">
            <feOffset dx="2" dy="2" in="SourceAlpha" result="shadowOffsetOuter1"></feOffset>
            <feGaussianBlur stdDeviation="1" in="shadowOffsetOuter1" result="shadowBlurOuter1"></feGaussianBlur>
            <feColorMatrix values="0 0 0 0 1   0 0 0 0 1   0 0 0 0 1  0 0 0 1 0" type="matrix" in="shadowBlurOuter1" result="shadowMatrixOuter1"></feColorMatrix>
            <feMerge>
                <feMergeNode in="shadowMatrixOuter1"></feMergeNode>
                <feMergeNode in="SourceGraphic"></feMergeNode>
            </feMerge>
        </filter>
    </defs>
    <g id="Navigation" stroke="none" stroke-width="1" fill="none" fill-rule="evenodd">
        <g id="Navigatie---Ajax-Fanshop" transform="translate(-804.000000, -18.000000)">
            <g id="Group-3">
                <g id="Group" transform="translate(805.000000, 19.000000)">
                    <g id="Page-1" stroke="#D00532" stroke-width="0.4" fill="#D00532" stroke-linecap="round" stroke-linejoin="round">
                        <path d="M8.07076079,2.83916677 C8.06291647,2.83731427 8.05469232,2.83510467 8.04615252,2.83259843 C8.05959125,2.83834352 8.0686831,2.84194881 8.0715611,2.84307612 C8.07129506,2.84177273 8.07102829,2.84046961 8.07076079,2.83916677 Z M8.06190909,2.79740541 C8.04893607,2.73811093 8.03433034,2.67946274 8.01764007,2.62176208 C7.9774269,2.47338936 7.92644564,2.33091345 7.86422225,2.20097082 C7.92761706,2.34356174 8.01561953,2.63341614 8.06190909,2.79740541 Z M7.84970461,2.17129237 C7.8493847,2.17065216 7.84906451,2.17001228 7.84874404,2.16937273 C7.79144539,2.0559754 7.723347,1.95157786 7.64624881,1.86367993 C7.43175386,1.62098564 7.15636035,1.53188774 6.80236868,1.59068635 C6.43145458,1.65390354 6.12696789,1.82813231 5.87874811,2.06555855 C6.48772837,2.24574413 7.10989167,2.410945 7.73984661,2.55966354 C7.73393175,2.58554784 7.74104244,2.61135362 7.75665991,2.63626234 C7.77971307,2.50181731 7.80993984,2.29106715 7.84970461,2.17129237 Z M5.87680766,2.06621297 C5.84246254,2.05854567 5.75227194,2.18935008 5.73360505,2.21706396 C5.77908402,2.1650532 5.82681822,2.11394971 5.87680766,2.06621297 Z M5.51366318,2.50694318 C5.45821837,2.59088218 5.40708618,2.67759865 5.35970265,2.76605868 C5.08460913,3.28054657 4.93791258,3.8439333 4.86771423,4.2051248 C4.71051793,4.16972563 4.5548216,4.13222651 4.3976253,4.0947274 C4.5548216,4.13222651 4.71051793,4.16882565 4.86771423,4.2051248 C5.88267583,4.43452861 7.02988058,4.65026939 8.13528415,4.82358282 C8.1717259,4.572133 8.21124978,3.797795 8.12293759,3.15034963 C8.12292542,3.15025861 8.12291324,3.15016758 8.12290107,3.15007656 C7.31352284,2.97132576 6.29759821,2.73650814 5.51366318,2.50694318 Z M8.53689054,2.73791517 C9.52348225,2.94758417 10.5241697,3.11526137 11.5224575,3.23824756 C11.6808538,3.25684712 11.8389501,3.27454671 11.9982463,3.29224629 C12.5832326,3.3555448 13.3953135,3.40594361 13.9727999,3.43504293 L14.0465981,3.45964235 L14.1029968,3.53944047 C14.0747975,4.52611724 14.051398,5.52089382 14.0327984,6.52767011 C14.0138989,7.53294644 14.0009992,8.54542261 13.9647,9.56149868 C13.8885018,11.5828511 13.8909018,13.9290958 13.9811997,15.8931496 L13.9356623,15.8738954 L13.9635001,15.9306487 C12.8070273,16.7391297 11.3211623,17.4564128 10.1268904,17.8980024 C9.99922168,17.945138 9.92560079,17.952252 9.81890786,17.9761938 L9.81999763,17.9835004 C9.81365615,17.982439 9.80731252,17.981376 9.80096675,17.9803116 C9.77757911,17.9858027 9.75249808,17.9921864 9.72489987,18 C9.72421254,17.989258 9.72354063,17.9782999 9.72288238,17.967154 C6.63676887,17.4447904 3.05696167,16.5622203 0.145225422,15.4569599 L0.177499539,15.4060769 L0.131125754,15.4065611 C0.122725952,15.2952637 0.118226058,15.1815664 0.111026227,15.069069 C-0.127922606,11.366232 0.0479928869,7.12014706 0.361847846,3.40410113 C0.342542352,3.29008919 0.370030424,3.16121919 0.388510162,3.09345119 C0.389579382,3.08118863 0.390650044,3.06893227 0.391722138,3.05668214 C0.380600587,3.05313466 0.369532504,3.04955839 0.3585204,3.04595209 L0.392808062,3.04428167 C0.393478003,3.03663623 0.394148497,3.02899322 0.394819545,3.02135267 L0.394528524,3.04419785 L0.475517645,3.04025222 C2.04636969,3.06844239 3.53207914,2.808227 5.04083783,2.35041528 C5.04092859,2.35026634 5.04101937,2.35011741 5.04111015,2.34996848 C5.40080168,1.76168233 5.93418912,1.24959438 6.72377053,1.1172975 C7.23945839,1.03059954 7.68464791,1.17939604 8.00954026,1.54718738 C8.03154554,1.57157161 8.05119269,1.59713492 8.07198796,1.62387729 C8.40355477,0.951478338 9.00709638,0.206755125 10.0881913,0.0250232167 C10.6179788,-0.0640746855 11.0703682,0.0859217829 11.3970605,0.45641306 C12.0417453,1.18749585 12.0582449,2.62416202 11.9982463,3.29104632 C11.8401501,3.27334674 11.6820538,3.25594715 11.5224575,3.23704759 C11.5695564,2.68176066 11.5635566,1.37139152 11.037369,0.775005559 C10.8195741,0.527811379 10.5357808,0.437513505 10.1679894,0.499612043 C9.10479164,0.677660955 8.59626517,1.51430719 8.36021569,2.14231941 C8.36042126,2.14283726 8.36062669,2.14335523 8.36083199,2.14387333 C8.2837338,2.35116845 8.23543494,2.53506412 8.20873557,2.66526105 C8.317633,2.6886605 8.42653044,2.71445989 8.53662785,2.73665937 C8.53671547,2.73707795 8.53680304,2.73749655 8.53689054,2.73791517 Z M8.61775636,3.26047398 C8.68840385,3.92578285 8.64393198,4.63119274 8.60037183,4.8943545 C8.93841682,4.9442063 9.27008004,4.98958795 9.5901718,5.02964174 L9.58660313,5.01930563 C9.63700194,5.02650546 9.68860073,5.0334053 9.73779957,5.03940515 L9.73615887,5.04763659 C9.78551198,5.05362646 9.8345643,5.05948353 9.88329614,5.06520455 C9.88539425,5.02653941 12.0170006,4.26615933 13.1065524,3.89082009 C11.6180538,3.78066419 10.1038251,3.56745513 8.61775636,3.26047398 Z M4.3976253,4.0947274 C3.55524513,3.89553209 2.71976481,3.67533727 1.89808415,3.43384296 C1.89492953,3.43291902 1.89177094,3.43199686 1.88860842,3.43107646 C2.83720726,3.35491995 3.82677172,3.19309683 4.7397659,2.94791737 Z M0.398651885,3.05888665 C0.397219976,3.05843234 0.395788941,3.05797756 0.394358786,3.05752231 L0.394154153,3.07358598 C0.395848268,3.06786344 0.397370197,3.06293278 0.398651885,3.05888665 Z M0.783777102,3.60997591 C0.458671293,7.359678 0.404304471,11.3475979 0.659064436,15.1130821 C0.904792174,15.2030588 1.253571,15.3302719 1.28069869,15.3411626 L1.05570399,15.2589645 C3.54473313,16.1688914 8.68575958,17.2228104 9.60301424,17.4346855 C9.38341874,13.5419091 9.42908381,9.41366546 9.71115257,5.52766488 C6.76685381,5.18332762 3.6196467,4.50612685 0.783777102,3.60997591 Z M10.2166368,5.39287018 C9.92347542,9.26986255 9.87183262,13.4073851 10.0962374,17.302426 C10.097053,17.3021562 10.0978709,17.3018863 10.0986911,17.3016164 C11.3086672,16.9002315 12.4785408,16.3367424 13.5233686,15.6303297 C13.4398422,13.6803732 13.3962329,11.5425271 13.4724116,9.5437991 C13.5078108,8.54422263 13.5207105,7.53654636 13.5393101,6.53456995 C13.5541417,5.77117658 13.570101,4.9263081 13.5891011,4.16749569 C12.2377382,4.72242998 11.4256719,4.93355441 10.2183883,5.39219685 C10.2178047,5.39242156 10.2172209,5.392646 10.2166368,5.39287018 Z" id="Combined-Shape"></path>
                    </g>
                    <g id="logos/ajax" filter="url(#filter-1)" transform="translate(5.151208, 10.151208) rotate(12.000000) translate(-5.151208, -10.151208) translate(1.651208, 6.651208)">
                        <g id="logos/Sponsoren/Ziggo">
                            <rect id="Rectangle-6-Copy" x="0" y="1.42108547e-14" width="7" height="7"></rect>
                        </g>
                        <path d="M3.54807923,0 L3.66220161,0.330356411 L4.00969913,0.337468251 L3.73265878,0.548758705 L3.83344218,0.883588693 L3.54807923,0.683883654 L3.26271628,0.883588693 L3.36338567,0.548758705 L3.08645933,0.337468251 L3.43395685,0.330356411 L3.54807923,0 Z M5.80384887,0.529717329 L5.75961362,0.876591561 L6.06732221,1.0390168 L5.72563913,1.10371159 L5.66715283,1.4485211 L5.50047259,1.14156493 L5.15650934,1.19215076 L5.39512886,0.937845145 L5.24110355,0.624465383 L5.55531062,0.774043425 L5.80384887,0.529717329 Z M1.8685079,0.651421549 L1.71425458,0.964801311 L1.95276009,1.21922163 L1.60879683,1.16840639 L1.44177457,1.47524785 L1.3836303,1.13043834 L1.04217523,1.06562884 L1.34999783,0.903433019 L1.30587659,0.55644408 L1.55430083,0.800884883 L1.8685079,0.651421549 Z M1.75791978,5.37643589 C1.76430425,5.37574764 1.91490931,5.36095043 2.06825057,5.39559197 C2.2225039,5.43023351 2.43455947,5.50513724 2.53591291,5.54712003 L2.55233011,5.55377304 C2.83735104,5.67238017 2.93038187,5.69314215 2.9607081,5.69268333 C2.96036608,5.68316264 2.9511314,5.66171241 2.90153776,5.61582958 C2.89275911,5.60768537 2.88831278,5.59655879 2.88831278,5.58531749 C2.88831278,5.57545268 2.89196105,5.56524375 2.89914358,5.55721426 C2.91476273,5.54046702 2.94064263,5.53943466 2.95740186,5.55503482 C2.98955222,5.58474396 3.08725739,5.67547726 3.02136055,5.75267513 C2.98476387,5.79569029 2.90062569,5.78823433 2.5208638,5.63051209 L2.5044466,5.62374437 C2.40582936,5.58279394 2.19970222,5.51006964 2.05035125,5.47634576 C1.91046298,5.4446866 1.76795252,5.45868087 1.76647041,5.45891028 C1.74378274,5.46108972 1.72348925,5.4445719 1.72120909,5.42185989 C1.71904293,5.39903318 1.73523212,5.37873003 1.75791978,5.37643589 Z M3.46770333,5.12970094 C3.4699835,5.10687423 3.49016298,5.09035641 3.51262263,5.09265055 C3.53394219,5.09494469 3.54967535,5.11295371 3.54967535,5.1339451 C3.54967535,5.13520688 3.54956134,5.13658337 3.54956134,5.13807456 C3.54910531,5.14220401 3.53907257,5.23775502 3.49426728,5.33445309 C3.46918544,5.38870955 3.41183923,5.4932077 3.367946,5.57189676 C3.41343534,5.5546907 3.4618889,5.53725522 3.48902289,5.52991397 L3.70803298,5.47496927 C3.73037862,5.47083982 3.74622578,5.4834576 3.75158417,5.50571077 C3.7573986,5.52784924 3.74930401,5.54952888 3.7274144,5.55537894 L3.50977242,5.61020893 C3.45550443,5.62466202 3.29190242,5.69027448 3.2903063,5.69096272 C3.27423112,5.69750102 3.25553375,5.69302745 3.2439049,5.67960672 C3.23261807,5.6663007 3.23067992,5.64702991 3.23945857,5.63177386 C3.24082667,5.62936501 3.37854878,5.38836542 3.4197058,5.29935272 C3.45858266,5.21584596 3.46758932,5.1306186 3.46770333,5.12970094 Z M2.68982421,5.98954527 C2.69552463,5.9674068 2.71798428,5.95433019 2.73998789,5.96029496 C2.74454823,5.96144203 2.85525036,5.99218353 2.93539824,6.07890209 C2.98202767,6.12937321 3.0205625,6.21758296 3.03321742,6.27505121 C3.04325016,6.3202458 3.0491786,6.40570258 3.04929261,6.4092585 C3.05088872,6.43208521 3.03378747,6.45192954 3.01121381,6.45353544 C2.98829813,6.45502663 2.96868869,6.43770586 2.96720658,6.41487915 C2.96697856,6.41396149 2.96150616,6.33206063 2.95284152,6.29306022 C2.94280879,6.24660385 2.90986037,6.17319132 2.87497381,6.13522327 C2.81147114,6.06639902 2.71958039,6.04058992 2.71866833,6.04036051 C2.69666471,6.03428103 2.68366776,6.01156903 2.68982421,5.98954527 Z M4.87901296,5.38939779 C4.94137554,5.32252356 5.04478113,5.33984433 5.14773069,5.3685211 C5.2568367,5.39914789 5.38441207,5.44365424 5.38977046,5.44560426 C5.41109003,5.45317493 5.42249087,5.47680459 5.41519433,5.49836952 C5.40755577,5.51993445 5.38395604,5.53129045 5.36263647,5.52383449 C5.3616104,5.52337567 5.23221089,5.47818107 5.12572707,5.44847194 C5.02163743,5.41922163 4.96577333,5.41853339 4.94000744,5.44537485 C4.93875335,5.4477837 4.93658719,5.45363376 4.93658719,5.46785744 C4.93658719,5.49997542 4.94776001,5.57304383 5.00590428,5.73615731 C5.01867321,5.77263417 5.02596975,5.81335518 5.02596975,5.85120852 C5.02596975,5.90844736 5.00921052,5.95972143 4.96828151,5.98174519 C4.90671699,6.01512495 4.82121071,5.97176567 4.76910889,5.91165916 C4.76945091,5.91211798 4.77013496,5.91257681 4.770591,5.91303564 C4.68006835,5.81931995 4.6439277,5.80039328 4.63150078,5.79660795 C4.6153116,5.81782876 4.58304723,5.89720606 4.55830741,6.00640721 C4.5282092,6.1390086 4.49127049,6.26897173 4.40211594,6.27344531 C4.38376059,6.27436297 4.36597529,6.26713642 4.35195226,6.25325686 C4.30691895,6.20840639 4.30007845,6.07293732 4.30007845,5.99034822 C4.30007845,5.96327735 4.3007625,5.94182712 4.30110452,5.93127407 C4.30156056,5.92588283 4.30156056,5.92014748 4.30156056,5.914068 C4.30156056,5.84868497 4.28799356,5.75038099 4.27442657,5.71596887 C4.25082683,5.72445719 4.20328534,5.75680459 4.1754673,5.78731667 C4.16155828,5.80280213 4.03421093,5.94446538 3.93901394,6.12352315 C3.85065745,6.28961901 3.7723337,6.5063007 3.77164965,6.50848013 C3.76389708,6.53004506 3.74018334,6.54117165 3.71886377,6.53337157 C3.69754421,6.52557149 3.68637138,6.50182712 3.69412395,6.48026219 C3.69754421,6.47120033 3.7750699,6.25600983 3.8663906,6.08452274 C3.96432379,5.90041786 4.09041705,5.75795166 4.11492885,5.73133961 C4.11606894,5.73007784 4.23361157,5.60768537 4.30794503,5.63498566 C4.37942828,5.66102417 4.38376059,5.87965588 4.38376059,5.92645637 C4.38376059,5.93161819 4.38353258,5.93471528 4.38353258,5.93494469 C4.38262051,5.95192134 4.38227848,5.96912741 4.38227848,5.98621876 C4.38227848,6.0741991 4.3920832,6.15850881 4.40553619,6.18684146 C4.41876116,6.17663253 4.44395701,6.13717329 4.47793151,5.98793937 C4.49868103,5.89697665 4.5418902,5.74108972 4.59992047,5.71780418 C4.65088221,5.6971569 4.71301677,5.73455141 4.82964733,5.85545268 C4.83010337,5.85602622 4.8305594,5.85648505 4.83101543,5.85705858 C4.86704208,5.89835313 4.91458357,5.91670627 4.92929065,5.90890619 C4.94000744,5.90305612 4.95642464,5.84409668 4.92792255,5.76391643 C4.84914277,5.54149939 4.83546176,5.4365424 4.87901296,5.38939779 Z M4.3415775,5.36037689 C4.3688255,5.22892257 4.49662888,5.20162229 4.56013154,5.20552233 C4.58281921,5.2067841 4.59992047,5.22628431 4.59878038,5.24911102 C4.59741228,5.27193773 4.57791685,5.28937321 4.55522918,5.28811143 C4.54360033,5.28753789 4.44133482,5.28489963 4.42218141,5.37723884 C4.41568294,5.40832446 4.4192172,5.43287177 4.43301221,5.45237198 C4.45547186,5.48426055 4.5023293,5.49836952 4.52672709,5.50158132 C4.56320977,5.50651372 4.63378095,5.48380172 4.64540981,5.46992216 C4.65795073,5.45168374 4.67436793,5.4058009 4.68189248,5.38113888 C4.688847,5.35922982 4.71164867,5.34695617 4.73319625,5.35349447 C4.75497185,5.36026219 4.76705674,5.38343302 4.76078628,5.40534207 C4.7583921,5.41314215 4.73695853,5.48265465 4.71267474,5.51764031 C4.67915628,5.565932 4.56993626,5.59105285 4.5158963,5.58371159 C4.46710071,5.57717329 4.40211594,5.55182302 4.36586128,5.50031954 C4.33838526,5.46143384 4.33029067,5.41428923 4.3415775,5.36037689 Z M2.43284934,3.91782057 C2.44379414,3.89797624 2.46898999,3.8908644 2.48871344,3.90210569 C2.50216643,3.90967636 2.50980499,3.92367063 2.50980499,3.93823843 C2.50980499,3.94512085 2.50809487,3.95200328 2.50456061,3.95842687 C2.50159639,3.9637034 2.43353339,4.08575174 2.40537332,4.12647276 C2.38519384,4.15572306 2.33753834,4.2566653 2.31815692,4.30564523 C2.3492812,4.31470709 2.40560134,4.32606309 2.45348486,4.33340434 C2.47412037,4.33661614 2.48871344,4.35428103 2.48871344,4.37435477 C2.48871344,4.3764195 2.48848543,4.37848423 2.48825741,4.38066366 C2.48483716,4.40326096 2.46374561,4.41874642 2.44128596,4.4153052 C2.24268338,4.38479312 2.22740626,4.35886932 2.22740626,4.32560426 C2.22740626,4.28660385 2.31621878,4.11064318 2.33776636,4.07932814 C2.36353225,4.04170422 2.43205128,3.91919705 2.43284934,3.91782057 Z M2.65550769,3.70400655 C2.67169688,3.68794756 2.6978048,3.6885211 2.71353795,3.70503892 C2.72129052,3.71306841 2.72516681,3.72350676 2.72516681,3.7338304 C2.72516681,3.74472757 2.72083449,3.75551004 2.71251188,3.76353953 C2.68355375,3.79175748 2.65573571,3.82318722 2.64285276,3.84108152 C2.6488952,3.84406391 2.65733182,3.847161 2.66679452,3.84807866 L2.68457982,3.84911102 C2.74853852,3.85220811 2.86767727,3.85771405 2.86767727,3.94122081 L2.86858934,3.97368292 C2.86904537,3.98492421 2.86961541,3.99685375 2.86961541,4.00889799 C2.86961541,4.05558378 2.86163483,4.10410488 2.81261123,4.11305203 C2.78661732,4.11786973 2.75458096,4.10766079 2.72072048,4.09722245 C2.71057373,4.09389594 2.69632269,4.08953707 2.68503586,4.0867841 C2.68298371,4.09951659 2.68104557,4.1174109 2.67922143,4.13312577 C2.67523114,4.17212618 2.67021477,4.22076198 2.65710381,4.2744449 C2.65322752,4.29073331 2.65163141,4.30805408 2.65163141,4.32491602 C2.65163141,4.37366653 2.66462836,4.41920524 2.67146886,4.42884064 L2.67568717,4.43434658 C2.69176235,4.45591151 2.71114378,4.48149119 2.71114378,4.50890619 C2.71114378,4.5155592 2.7101177,4.52244162 2.70726749,4.52943875 C2.70293517,4.54045063 2.6910783,4.55960672 2.66029604,4.56453912 L2.66052406,4.56453912 L2.65790187,4.56545678 C2.63099589,4.57497747 2.59952958,4.57968046 2.43467347,4.55260959 C2.41221383,4.54882425 2.39716472,4.52748873 2.40081299,4.50500615 C2.40446126,4.48252356 2.4255528,4.46715281 2.44801245,4.47082343 C2.55324218,4.48825891 2.59485524,4.49055305 2.61400864,4.48986481 C2.61264054,4.48791479 2.60557202,4.47850881 2.60557202,4.47850881 C2.58516452,4.45120852 2.56977339,4.38731667 2.56977339,4.3246866 C2.56977339,4.30048341 2.57205356,4.27639492 2.57718394,4.25482999 C2.58881279,4.20665301 2.59360114,4.1611143 2.59747743,4.12452274 C2.60363388,4.06441622 2.60785219,4.02472757 2.64137065,4.00798034 C2.66873266,3.99410078 2.70259315,4.00465383 2.74523228,4.01807456 C2.75708915,4.02163048 2.77430441,4.02725113 2.78661732,4.0300041 C2.78718736,4.02484228 2.78730137,4.01887751 2.78730137,4.0122245 C2.78730137,4.00029496 2.78673133,3.98733306 2.7863893,3.97758296 C2.7863893,3.97758296 2.78570525,3.95670627 2.78547723,3.94787382 C2.77567251,3.94190905 2.74910856,3.93514134 2.68081755,3.93181483 L2.65858592,3.93055305 C2.60830822,3.92562065 2.5548383,3.89338796 2.5548383,3.84360508 C2.5548383,3.83087259 2.5548383,3.80162229 2.65550769,3.70400655 Z M2.3260235,3.48801311 C2.33753834,3.46988939 2.36170812,3.44832446 2.41107374,3.44832446 C2.48654728,3.44832446 2.6148067,3.47046293 2.79836018,3.57576403 C2.96811864,3.67349447 3.39428194,3.96014748 3.63449758,4.15606719 C3.88200975,4.35772224 4.10272996,4.55054486 4.21058188,4.65928718 C4.34955808,4.7988857 4.42138336,4.8749365 4.41340277,4.94341663 C4.40530818,5.01350266 4.35297833,5.0303646 4.30657693,5.04516182 L4.280355,5.05410897 C4.22357883,5.074068 4.21058188,5.09242114 4.21058188,5.09735354 C4.21058188,5.10331831 4.21548424,5.12213027 4.21867647,5.13566571 C4.2313314,5.18476034 4.24535443,5.24027857 4.21856246,5.2795084 C4.1795716,5.33732077 4.11048253,5.33537075 4.06465116,5.33410897 C4.05062813,5.33376485 4.03329886,5.33330602 4.02714241,5.33525604 C4.0201879,5.33743548 4.00776098,5.34454732 3.99556209,5.35131503 C3.95429106,5.37460057 3.88508798,5.41371569 3.8281978,5.36748873 C3.78681276,5.33342073 3.77563994,5.28386727 3.77563994,5.2391315 C3.77563994,5.20357231 3.78270846,5.17133961 3.78681276,5.15252765 L3.80322997,5.08507989 C3.80836034,5.06672675 3.81417477,5.04378533 3.81679696,5.02898812 C3.80459807,5.02371159 3.78647074,5.01694388 3.77313176,5.01212618 C3.71054116,4.98907005 3.67132228,4.97335518 3.65239689,4.94926669 C3.62777108,4.91806637 3.62058855,4.87401884 3.62058855,4.83467431 C3.62058855,4.82274478 3.62138661,4.81127407 3.62241269,4.80083572 C3.62571893,4.76516182 3.64236415,4.69312577 3.64453031,4.68498156 C3.64988871,4.6628431 3.67189232,4.64896354 3.69412395,4.65435477 C3.71293534,4.65894306 3.72570427,4.67591971 3.72570427,4.69461696 C3.72570427,4.69794347 3.72502022,4.70104056 3.72433617,4.70436706 C3.71977584,4.72478492 3.70632285,4.78317083 3.70392867,4.80829168 C3.70335863,4.81712413 3.7029026,4.82572716 3.7029026,4.83398607 C3.7029026,4.86254814 3.70803298,4.88583367 3.71635559,4.89696026 C3.72707237,4.90682507 3.77541192,4.92471938 3.80140583,4.93435477 C3.85932208,4.95557558 3.88314983,4.96509627 3.89398063,4.98723474 C3.89865497,4.99606719 3.9003651,5.005932 3.9003651,5.017288 C3.9003651,5.03965588 3.89318257,5.06775912 3.88303583,5.10618599 L3.86718866,5.17007784 C3.86126023,5.19795166 3.85806799,5.2212372 3.85806799,5.2406227 C3.85806799,5.27067595 3.86536453,5.29097911 3.88018562,5.30313806 C3.89341059,5.31392052 3.93069133,5.29281442 3.95520312,5.27904957 C3.97207636,5.2697583 3.9875815,5.26069644 4.00297263,5.25610815 C4.02224005,5.25002868 4.04390164,5.25071692 4.06670331,5.25129045 C4.10751831,5.25243753 4.13716049,5.25174928 4.15049947,5.23282261 C4.15118352,5.23075789 4.15186757,5.2277755 4.15186757,5.22376075 C4.15186757,5.20598116 4.14343095,5.17328964 4.13909863,5.15608357 C4.13339821,5.13337157 4.12826783,5.11375666 4.12826783,5.09735354 C4.12826783,5.04573535 4.17022291,5.00489963 4.25276497,4.97587874 L4.28183711,4.96624334 C4.32983463,4.95075789 4.33029067,4.94789021 4.33154476,4.93389594 C4.33188678,4.93343712 4.33188678,4.93274887 4.33188678,4.93229005 C4.33188678,4.89833675 4.22403486,4.79005326 4.15243761,4.7179025 C4.04640982,4.61099549 3.82796978,4.42035231 3.58273778,4.22053257 C3.34525834,4.02690701 2.92502348,3.74392462 2.75743117,3.64780008 C2.58995288,3.55144613 2.47651455,3.53114297 2.41107374,3.53114297 C2.40161105,3.53114297 2.39705071,3.53251946 2.39534059,3.53343712 C2.39522658,3.53435477 2.39488455,3.53515772 2.39488455,3.53664891 C2.39488455,3.54376075 2.39727873,3.55718148 2.40594336,3.57622286 C2.41392395,3.59365834 2.46009734,3.6335764 2.49817614,3.66007374 C2.50969098,3.66810324 2.51584744,3.68106514 2.51584744,3.69425645 C2.51584744,3.70228595 2.51345326,3.71054486 2.5085509,3.7176567 C2.49555394,3.73658337 2.47001607,3.74117165 2.45143271,3.72820975 C2.42863103,3.71249488 2.35258745,3.65709136 2.33115387,3.6108644 C2.3151927,3.57610815 2.3015117,3.52655469 2.3260235,3.48801311 Z M3.49802956,4.70413765 C3.50441402,4.74348218 3.50772027,4.76424416 3.50772027,4.77835313 C3.50772027,4.782712 3.50760626,4.78649734 3.5068082,4.78993855 C3.50395799,4.80622696 3.49438129,4.81999181 3.46109084,4.86495698 C3.42905449,4.90877509 3.38493325,4.96853748 3.36099149,5.02015567 L3.33032324,5.09001229 C3.30068106,5.15860713 3.28129964,5.20414584 3.24766717,5.22433429 C3.22269934,5.23947562 3.16957144,5.25014338 3.08509123,5.26597296 L3.0083636,5.2811143 C2.97131088,5.28948791 2.91863901,5.31116755 2.87634191,5.32871774 C2.84179737,5.34305612 2.82161789,5.35131503 2.80805089,5.35429742 C2.78308306,5.35980336 2.7523008,5.35039738 2.69529661,5.33181483 C2.66508439,5.32195002 2.63065387,5.31082343 2.60374789,5.30577632 C2.51972372,5.29040557 2.50273647,5.24658746 2.50273647,5.19829578 C2.50273647,5.1922163 2.50285048,5.18613683 2.50342052,5.18005735 C2.50330651,5.17971323 2.50091234,5.1565424 2.42749095,5.10733306 C2.41529205,5.09907415 2.30584401,5.02302335 2.29729339,4.92391643 C2.29695136,4.91990168 2.29683735,4.91577222 2.29683735,4.91187218 C2.29683735,4.84327735 2.34688703,4.78603851 2.38405376,4.74371159 L2.40594336,4.7179025 C2.40833754,4.71492011 2.40924961,4.71170832 2.40924961,4.70849652 C2.40924961,4.69725522 2.3983048,4.6855551 2.3968227,4.68383449 C2.38941215,4.67603441 2.38519384,4.66559607 2.38519384,4.65504302 C2.38519384,4.64907825 2.38656194,4.64322819 2.38907013,4.63772224 C2.39625265,4.62223679 2.41175779,4.61248669 2.42874504,4.61363376 L2.57433373,4.62281032 C2.5970214,4.62418681 2.61423666,4.64391643 2.61286856,4.66674314 C2.61150046,4.68956985 2.59189102,4.70689062 2.56931736,4.70539943 C2.56931736,4.70539943 2.52964245,4.70299058 2.49076559,4.70058173 C2.49099361,4.70367882 2.49190568,4.7066612 2.49190568,4.709873 C2.49190568,4.72902909 2.48609125,4.74933224 2.47081413,4.76906186 L2.44584629,4.79854158 C2.41609011,4.83249488 2.37926541,4.87459238 2.37926541,4.9121016 L2.37926541,4.91668988 C2.3832557,4.96211389 2.4391198,5.01545268 2.47332231,5.0383941 C2.54982193,5.08978288 2.58573457,5.13486276 2.58573457,5.17971323 C2.58573457,5.18166325 2.58573457,5.18361327 2.58562056,5.185678 C2.58493651,5.1922163 2.58470849,5.19737812 2.58470849,5.20162229 C2.58470849,5.21814011 2.5902949,5.21917247 2.61856898,5.22433429 C2.65083335,5.23041376 2.68800008,5.24245801 2.72072048,5.25301106 C2.74466224,5.26081114 2.78046087,5.27251127 2.79197571,5.27297009 C2.80052634,5.27056125 2.82492413,5.26046702 2.84510361,5.2520934 C2.89013692,5.23339615 2.94634305,5.21022532 2.99012226,5.2002458 L3.07015614,5.18441622 C3.11484742,5.17604261 3.18986493,5.16216305 3.20537007,5.1532159 C3.21688491,5.1451864 3.23786245,5.09620647 3.25462168,5.05709136 L3.28643002,4.98528472 C3.31390604,4.92586645 3.36076348,4.86208931 3.39496599,4.81574764 C3.40625282,4.8004916 3.41924977,4.7825973 3.42495019,4.77376485 C3.42392411,4.76206473 3.42004783,4.73717329 3.4169696,4.71767308 C3.41161121,4.68509627 3.40534075,4.64816059 3.40374463,4.6207456 L3.40408666,4.55880377 C3.40454269,4.54848013 3.40499872,4.53528882 3.40499872,4.5237034 C3.40499872,4.51532978 3.40226252,4.49972962 3.39222979,4.49514134 C3.37786473,4.48562065 3.34981867,4.46715281 3.34981867,4.46715281 C3.31858038,4.44352315 3.30296123,4.40647276 3.30410132,4.37951659 C3.30512739,4.35577222 3.31310798,4.33237198 3.31744029,4.31723064 C3.3216586,4.30243343 3.3352256,4.26813601 3.34594239,4.2420975 C3.31778232,4.22145023 3.25941003,4.17866448 3.19830155,4.13392872 C3.204458,4.22087669 3.21312264,4.3408603 3.21312264,4.3408603 C3.21323664,4.34177796 3.21323664,4.34292503 3.21323664,4.34384269 C3.21323664,4.35278984 3.21027243,4.36150758 3.20480002,4.36884883 C3.17971818,4.40222859 3.13616698,4.46176157 3.12624826,4.47988529 C3.09649207,4.5334535 3.05031868,4.56798034 2.99217441,4.57968046 L2.85741652,4.60434248 C2.8354129,4.60526014 2.81261123,4.59287177 2.80862093,4.57050389 C2.80463064,4.54779189 2.82526616,4.52542401 2.84396353,4.52267104 L2.97609923,4.49846784 C3.01064377,4.49147071 3.03629565,4.47219992 3.05419497,4.43962311 C3.06730593,4.41587874 3.11040109,4.35737812 3.12989652,4.33133961 C3.12784437,4.30346579 3.10435865,3.96072102 3.10435865,3.96072102 L3.21038643,4.04032773 L3.42061787,4.19437935 C3.43156267,4.20240885 3.43760512,4.21502663 3.43760512,4.22798853 C3.43760512,4.23337976 3.43657904,4.2388857 3.43418487,4.24404752 C3.42187196,4.27387136 3.4005524,4.3261778 3.3965621,4.33982794 C3.38117097,4.37619009 3.39336987,4.3975256 3.41674159,4.41324048 C3.43851719,4.42792298 3.45869667,4.44054076 3.45869667,4.44054076 C3.48263843,4.45659975 3.48731277,4.48516182 3.48731277,4.52393281 C3.48731277,4.53563294 3.48697074,4.54813601 3.48651471,4.56178615 L3.48605868,4.6159279 C3.48731277,4.63898402 3.49301319,4.67362556 3.49802956,4.70413765 Z M3.75443438,2.85253585 C3.86285634,2.81342073 3.99100175,2.7724703 4.14377297,2.78107333 C4.29072976,2.78933224 4.34921606,2.80929127 4.4152269,2.83647685 C4.47770349,2.86240066 4.56788411,2.91723064 4.57164639,2.91952478 C4.59125583,2.93145432 4.59741228,2.95680459 4.58566942,2.97630479 C4.57381255,2.99603441 4.5486167,3.00222859 4.52900726,2.99029906 C4.52809519,2.98984023 4.44053676,2.93650143 4.38376059,2.9132159 C4.33029067,2.89107743 4.28354723,2.87203605 4.13921264,2.86377714 C4.00183255,2.85597706 3.88725414,2.89245391 3.78213842,2.93053667 C3.68899358,2.96403113 3.56141821,3.02792298 3.4128653,3.11498566 C3.27890547,3.19367472 3.12043383,3.2774109 3.02728899,3.31870545 C2.94508895,3.3551823 2.75993936,3.42171241 2.70441728,3.42113888 C2.6815016,3.42090946 2.66337427,3.4020975 2.66371629,3.37915608 C2.6638303,3.35632937 2.68264168,3.33809095 2.70521534,3.33820565 C2.73428747,3.33866448 2.891277,3.28853748 2.99411255,3.24288406 C3.08474921,3.20273658 3.2399146,3.12072102 3.37148026,3.04352315 C3.47796408,2.98100778 3.63084931,2.8971569 3.75443438,2.85253585 Z M1.2324552,3.62898812 L1.18958805,3.7840721 L0.97114801,3.63690291 L0.971604043,3.63495289 L1.2324552,3.62898812 Z M1.36652904,4.10800492 L0.816666667,3.70056534 L0.872758785,3.49833675 L1.5538448,3.43260959 L1.50368111,3.61327325 L1.35968854,3.62256452 L1.29527381,3.85484637 L1.41304446,3.94041786 L1.36652904,4.10800492 Z M1.68176219,3.41368292 C1.70114361,3.38512085 1.72063904,3.32512905 1.72588343,3.29392872 C1.73420604,3.24391643 1.73888038,3.19138058 1.65360212,3.13115936 L1.19791066,2.81800901 L1.29550183,2.67783695 L1.79326238,3.02058173 C1.90544661,3.09984433 1.95184802,3.20743957 1.86622773,3.33327325 C1.84832842,3.35954117 1.8249567,3.394068 1.8249567,3.394068 L1.68176219,3.41368292 Z M2.19115159,2.33233921 L2.06152407,2.42674314 L1.98171821,2.17461696 L1.98320032,2.17346989 L2.19115159,2.33233921 Z M1.99950352,2.79105285 L1.82176447,2.12770176 L1.99061087,2.00462106 L2.56430099,2.38005735 L2.41301188,2.49006145 L2.29467119,2.40701352 L2.10028692,2.54844736 L2.1395058,2.68907825 L1.99950352,2.79105285 Z M2.84464758,1.93373208 L2.59314511,1.68206473 L2.78593327,1.63457599 L2.93995858,1.81455141 L2.99662074,1.58261368 L3.17766603,1.53810733 L3.06856002,1.87867268 L3.3474245,2.15764031 L3.15007601,2.20616141 L2.9742751,2.00599754 L2.91122847,2.26500615 L2.7236847,2.31134781 L2.84464758,1.93373208 Z M4.62101201,6.54885703 L4.62021396,6.54920115 L4.6426736,6.76932405 L4.60983919,6.78412126 L4.46436451,6.61940188 L4.46368046,6.61974601 L4.54895872,6.81142155 L4.50723166,6.83023351 L4.40508016,6.60036051 L4.4737132,6.56927489 L4.60208662,6.71759115 L4.60265667,6.71724703 L4.57917094,6.52190086 L4.64620786,6.49196231 L4.74801734,6.72172061 L4.70629028,6.74064728 L4.62101201,6.54885703 Z M4.87650477,6.59198689 C4.88710755,6.5921016 4.90888315,6.58969275 4.92963268,6.57661614 C4.9462779,6.56571897 4.9558546,6.54667759 4.94228761,6.52534207 C4.9327109,6.51020074 4.91971395,6.50905367 4.89429008,6.51065957 L4.86761212,6.51215076 C4.83933805,6.51387136 4.81539629,6.50572716 4.79818102,6.47831217 C4.77423927,6.44022941 4.79282263,6.40054076 4.82839324,6.37794347 C4.85085289,6.36371979 4.87023431,6.35947562 4.87741684,6.3574109 L4.89600021,6.39124949 C4.88437135,6.39354363 4.8686382,6.39583777 4.85073888,6.40742319 C4.83101543,6.41958214 4.82770919,6.43644408 4.83682986,6.45101188 C4.84697661,6.46707087 4.86145567,6.46626792 4.87741684,6.46546497 L4.90831311,6.46385907 C4.94194558,6.46190905 4.96223907,6.46798853 4.98082243,6.49781237 C5.00818444,6.54117165 4.99051315,6.58131913 4.95026819,6.60701352 C4.92917664,6.62054896 4.91082129,6.62789021 4.89600021,6.62811962 L4.87650477,6.59198689 Z M5.04113286,6.27642769 L4.99723964,6.31152806 L4.97432396,6.28273658 L5.09779502,6.18397378 L5.12048269,6.21276526 L5.07693149,6.24763621 L5.21009327,6.41591151 L5.17429464,6.44470299 L5.04113286,6.27642769 Z M5.18512544,6.10448177 L5.27872631,6.01122491 L5.30437819,6.03726342 L5.24383975,6.09817288 L5.29058318,6.14577632 L5.3480434,6.08830807 L5.37369528,6.11457599 L5.31634907,6.17181483 L5.36833689,6.2246948 L5.43161154,6.16137649 L5.45749144,6.18764441 L5.3616104,6.28342483 L5.18512544,6.10448177 Z M4.20328534,6.82541581 L4.20522348,6.70279394 L4.20602154,6.70267923 L4.26758606,6.8074068 L4.20328534,6.82541581 Z M4.31945987,6.89263417 L4.36540525,6.87978697 L4.22027259,6.65886112 L4.17204705,6.67251127 L4.15813803,6.93771405 L4.20260129,6.92532569 L4.20374137,6.86212208 L4.28662546,6.83883654 L4.31945987,6.89263417 L4.31945987,6.89263417 Z M5.47915303,5.94756247 L5.42146479,5.90122081 L5.43320765,5.8864236 C5.44928283,5.86612044 5.46433194,5.8588939 5.48667758,5.87690291 C5.50628702,5.8929619 5.506059,5.91372388 5.49078188,5.93299467 L5.47915303,5.94756247 L5.47915303,5.94756247 Z M5.56066901,6.0725932 L5.58939912,6.03646047 L5.50537495,5.96878329 L5.51187343,5.96075379 C5.52247621,5.94733306 5.53478911,5.94217124 5.55428454,5.94985662 L5.63317834,5.98163048 L5.66350456,5.94331831 L5.56876361,5.90890619 C5.5455059,5.90041786 5.53558717,5.9059238 5.52886068,5.91223269 L5.5278346,5.91165916 C5.54208565,5.88688243 5.53775333,5.85717329 5.51232946,5.83664072 C5.47664484,5.80773454 5.44210031,5.81874642 5.41428226,5.85361737 L5.36537267,5.91498566 L5.56066901,6.0725932 L5.56066901,6.0725932 Z M5.58985516,5.66848013 L5.59806376,5.65528882 C5.62519775,5.61089717 5.66726684,5.60952069 5.71412428,5.63854158 C5.7607537,5.66744777 5.77831099,5.70598935 5.751177,5.75015158 L5.74331042,5.7634576 L5.58985516,5.66848013 L5.58985516,5.66848013 Z M5.74901084,5.82126997 L5.78321335,5.76552233 C5.81981004,5.70587464 5.81125941,5.64129455 5.73954815,5.5967882 C5.66920498,5.5530848 5.61117472,5.56639082 5.57024572,5.63326506 L5.5359292,5.68924211 L5.74901084,5.82126997 L5.74901084,5.82126997 Z M5.84660201,5.45042196 L5.75459725,5.37001229 L5.75493928,5.36920934 L5.87442005,5.38939779 L5.84660201,5.45042196 L5.84660201,5.45042196 Z M5.97246725,5.40442442 L5.9104467,5.39524785 L5.87464807,5.47393691 L5.92173352,5.51557558 L5.90269413,5.55767308 L5.70990597,5.37597706 L5.73088351,5.33009422 L5.9921907,5.36117984 L5.97246725,5.40442442 Z M5.90577235,4.95224908 L5.90531632,4.95305203 L6.08681765,5.07785334 L6.07701293,5.11260959 L5.85800284,5.11811553 L5.85788884,5.11891848 L6.05842956,5.17707497 L6.04566062,5.2213519 L5.80521697,5.15149529 L5.82585248,5.078771 L6.02126283,5.07578861 L6.02160486,5.07510037 L5.85800284,4.96693159 L5.87818233,4.89638673 L6.11873999,4.96624334 L6.10608506,5.01052028 L5.90577235,4.95224908 Z M1.18046738,4.3554281 L1.20144492,4.3554281 C1.20144492,5.67088898 2.26525703,6.7409914 3.57270504,6.7409914 C3.71464546,6.7409914 3.85669989,6.72837362 3.99522006,6.70325277 L3.99898234,6.72412946 C3.85920808,6.74936501 3.71578554,6.76221221 3.57270504,6.76221221 C2.25362818,6.76221221 1.18046738,5.6824744 1.18046738,4.3554281 Z M3.57270504,1.9697501 L3.57270504,1.94852929 C4.8917819,1.94852929 5.96471468,3.0282671 5.96471468,4.3554281 C5.96471468,4.49709136 5.95251578,4.63921344 5.92811799,4.77743548 L5.90748248,4.77376485 C5.93153824,4.63657517 5.94373714,4.49594429 5.94373714,4.3554281 C5.94373714,3.03996723 4.88015304,1.9697501 3.57270504,1.9697501 Z M1.02233777,4.3554281 L1.11981493,4.3554281 C1.11981493,5.71619828 2.22010972,6.82346579 3.57270504,6.82346579 C3.71954782,6.82346579 3.86673263,6.81027448 4.01015516,6.78423597 L4.02737042,6.88070463 C3.87824747,6.9077755 3.72524824,6.92142565 3.57270504,6.92142565 C2.16652578,6.92142565 1.02233777,5.77034002 1.02233777,4.3554281 Z M3.57270504,1.88739041 L3.57270504,1.78931585 C4.9789983,1.78931585 6.1229583,2.94051618 6.1229583,4.3554281 C6.1229583,4.50672675 6.10984734,4.65836952 6.08373942,4.80588283 L5.98797239,4.78879148 C6.01294022,4.6467841 6.02559515,4.5011061 6.02559515,4.3554281 C6.02559515,2.99454322 4.92530036,1.88739041 3.57270504,1.88739041 Z M0.944128026,4.3554281 L0.965219575,4.3554281 C0.965219575,5.80199918 2.13483146,6.97877919 3.57270504,6.97877919 C3.72866849,6.97877919 3.88497397,6.96489963 4.03717514,6.93736993 L4.0407094,6.95813191 C3.88748215,6.98600574 3.73003659,7 3.57270504,7 C2.12331661,7 0.944128026,5.8136993 0.944128026,4.3554281 Z M3.57270504,1.73196231 L3.57270504,1.71085621 C5.02209347,1.71085621 6.20128205,2.8971569 6.20128205,4.3554281 C6.20128205,4.51142974 6.18771506,4.66754609 6.16080908,4.81953298 L6.14005956,4.81574764 C6.16662351,4.66513724 6.1801905,4.51016796 6.1801905,4.3554281 C6.1801905,2.90885703 5.01046461,1.73196231 3.57270504,1.73196231 Z M4.77959766,2.66487505 C5.17691683,2.78187628 5.39182261,3.0832118 5.39182261,3.54089308 C5.39182261,4.13278165 5.02733785,4.5463007 4.50552153,4.5463007 C4.02075794,4.5463007 3.85487576,4.13989349 3.75580248,3.89694388 L3.72422216,3.82112249 C3.70096446,3.76858664 3.66961215,3.7354363 3.62834112,3.71972143 C3.54340489,3.68760344 3.43338681,3.7387628 3.39200177,3.75803359 C3.37136625,3.76755428 3.34696846,3.75849242 3.33739176,3.73784515 C3.32792907,3.71708316 3.33693573,3.69253585 3.35757124,3.68301516 C3.40750691,3.65984433 3.54021265,3.59813191 3.65718524,3.64240885 C3.7192058,3.6659238 3.7669753,3.71478902 3.79912566,3.78751331 L3.83184607,3.86562884 C3.92886719,4.10376075 4.07570997,4.46359689 4.50552153,4.46359689 C4.97911231,4.46359689 5.30962258,4.08414584 5.30962258,3.54089308 C5.30962258,3.16178615 5.15491322,2.9051864 4.8591755,2.78027038 C4.85723736,2.87823023 4.85324707,3.0702499 4.85267703,3.09961491 C4.8877916,3.12576813 4.96565932,3.18770995 5.01502495,3.26009013 C5.08057976,3.35552642 5.09551486,3.46403933 5.09631291,3.46862761 C5.09654093,3.47046293 5.09654093,3.47229824 5.09654093,3.47424826 C5.09654093,3.49455141 5.08171984,3.51233101 5.06108433,3.51519869 C5.03839666,3.51829578 5.01776115,3.5024662 5.01456891,3.4797542 C5.0144549,3.47883654 5.00111592,3.38569439 4.94753199,3.30700533 C4.89235194,3.22648095 4.78894635,3.15570668 4.78814829,3.15501844 C4.77663344,3.14710365 4.76979294,3.13379762 4.76990695,3.11980336 L4.77959766,2.66487505 Z" id="ajax_splash_logo" fill="#D00532"></path>
                    </g>
                </g>
            </g>
        </g>
    </g>
</svg>