<?xml version="1.0" encoding="utf-8"?>
<!-- Generator: Adobe Illustrator 16.0.0, SVG Export Plug-In . SVG Version: 6.00 Build 0)  -->
<!DOCTYPE svg PUBLIC "-//W3C//DTD SVG 1.1//EN" "http://www.w3.org/Graphics/SVG/1.1/DTD/svg11.dtd">
<svg version="1.1" id="Layer_1" xmlns:sketch="http://www.bohemiancoding.com/sketch/ns"
	 xmlns="http://www.w3.org/2000/svg" xmlns:xlink="http://www.w3.org/1999/xlink" x="0px" y="0px" width="34.455px"
	 height="44.854px" viewBox="5.352 4.103 34.455 44.854" enable-background="new 5.352 4.103 34.455 44.854" xml:space="preserve">
<title>logo-ajax-transparent</title>
<desc>Created with Sketch.</desc>
<g id="Stream-_x28_wedstrijden-_x2B_-statistieken_x29_" sketch:type="MSPage">
	<g id="_x35_.1.1-1280-stream-copy-3" transform="translate(-519.000000, -4.000000)" sketch:type="MSArtboardGroup">
		<g id="Logo" transform="translate(524.000000, 8.000000)" sketch:type="MSLayerGroup">
			<path id="logo-ajax-transparent" sketch:type="MSShapeGroup" fill="#FFFFFF" d="M17.83,0.103l0.73,2.117l2.224,0.045L19.01,3.619
				l0.646,2.146l-1.826-1.28l-1.826,1.28l0.644-2.146l-1.772-1.354l2.224-0.045L17.83,0.103z M32.264,3.497L31.98,5.719l1.969,1.041
				l-2.186,0.415l-0.375,2.209l-1.066-1.967l-2.201,0.324l1.527-1.629l-0.986-2.008l2.012,0.958L32.264,3.497z M7.083,4.276
				L6.095,6.285l1.526,1.63L5.42,7.589L4.352,9.556l-0.372-2.21L1.795,6.931l1.97-1.039L3.482,3.668l1.589,1.566L7.083,4.276z
				 M6.375,34.553c-0.145,0.016-0.249,0.146-0.235,0.291c0.015,0.146,0.145,0.252,0.29,0.238c0.01-0.002,0.921-0.092,1.817,0.111
				c0.956,0.217,2.274,0.682,2.905,0.944l0.105,0.044c2.43,1.01,2.969,1.059,3.203,0.782c0.422-0.495-0.204-1.075-0.409-1.267
				c-0.107-0.1-0.273-0.093-0.373,0.014c-0.046,0.053-0.069,0.117-0.069,0.181c0,0.072,0.028,0.144,0.084,0.196
				c0.317,0.293,0.376,0.431,0.378,0.492c-0.194,0.002-0.789-0.131-2.613-0.891l-0.105-0.043c-0.649-0.269-2.005-0.748-2.993-0.971
				C7.379,34.454,6.416,34.549,6.375,34.553z M17.315,32.973c0,0.006-0.058,0.552-0.307,1.087c-0.263,0.57-1.145,2.114-1.153,2.13
				c-0.056,0.098-0.043,0.221,0.029,0.307c0.074,0.086,0.194,0.114,0.297,0.072c0.01-0.004,1.057-0.425,1.404-0.518l1.392-0.352
				c0.141-0.037,0.192-0.176,0.154-0.317c-0.033-0.143-0.135-0.224-0.277-0.197l-1.402,0.353c-0.174,0.047-0.484,0.158-0.775,0.269
				c0.281-0.505,0.648-1.174,0.808-1.521c0.287-0.62,0.351-1.231,0.354-1.259c0-0.01,0.001-0.018,0.001-0.025
				c0-0.135-0.101-0.25-0.237-0.266C17.459,32.721,17.33,32.826,17.315,32.973z M12.338,38.482c-0.04,0.141,0.043,0.286,0.185,0.325
				c0.005,0.001,0.594,0.167,1,0.608c0.223,0.242,0.434,0.713,0.498,1.011c0.056,0.25,0.091,0.774,0.092,0.78
				c0.009,0.146,0.135,0.258,0.281,0.248c0.145-0.01,0.254-0.138,0.244-0.283c0-0.023-0.039-0.57-0.103-0.86
				c-0.081-0.368-0.328-0.934-0.626-1.257c-0.513-0.556-1.221-0.753-1.25-0.76C12.518,38.256,12.374,38.34,12.338,38.482z
				 M26.346,34.637c-0.279,0.302-0.191,0.975,0.312,2.399c0.183,0.514,0.078,0.892,0.01,0.929c-0.095,0.051-0.398-0.067-0.629-0.332
				c-0.004-0.004-0.006-0.006-0.01-0.01c-0.746-0.775-1.144-1.015-1.469-0.883c-0.372,0.149-0.648,1.148-0.781,1.731
				c-0.217,0.956-0.379,1.209-0.463,1.274c-0.086-0.182-0.149-0.722-0.149-1.285c0-0.109,0.003-0.221,0.009-0.329
				c0-0.001,0.001-0.021,0.001-0.054c0-0.301-0.028-1.701-0.485-1.868c-0.476-0.175-1.228,0.609-1.234,0.617
				c-0.157,0.171-0.965,1.083-1.591,2.263c-0.585,1.1-1.081,2.479-1.103,2.537c-0.049,0.138,0.021,0.289,0.158,0.34
				c0.137,0.05,0.289-0.021,0.338-0.16c0.004-0.014,0.506-1.402,1.071-2.467c0.608-1.146,1.424-2.055,1.513-2.154
				c0.178-0.195,0.482-0.402,0.633-0.457c0.088,0.221,0.174,0.851,0.174,1.27c0,0.039,0,0.076-0.002,0.11
				c-0.003,0.067-0.008,0.205-0.008,0.379c0,0.528,0.045,1.397,0.332,1.685c0.09,0.089,0.204,0.135,0.321,0.129
				c0.571-0.028,0.808-0.861,0.999-1.711c0.158-0.699,0.365-1.208,0.469-1.344c0.08,0.023,0.311,0.145,0.891,0.746
				c-0.004-0.004-0.008-0.006-0.01-0.01c0.333,0.386,0.881,0.664,1.274,0.449c0.262-0.141,0.369-0.469,0.369-0.836
				c0-0.242-0.047-0.504-0.128-0.737c-0.373-1.046-0.444-1.514-0.444-1.72c0-0.091,0.015-0.129,0.022-0.144
				c0.164-0.172,0.521-0.168,1.188,0.02c0.682,0.19,1.51,0.479,1.517,0.483c0.136,0.047,0.287-0.025,0.336-0.164
				c0.047-0.138-0.026-0.289-0.163-0.338c-0.033-0.012-0.85-0.297-1.549-0.494C27.406,34.318,26.744,34.208,26.346,34.637z
				 M22.906,34.45c-0.072,0.346-0.02,0.647,0.156,0.897c0.231,0.33,0.647,0.492,0.959,0.533c0.347,0.048,1.045-0.113,1.26-0.423
				c0.155-0.224,0.293-0.669,0.309-0.72c0.039-0.141-0.038-0.289-0.178-0.332c-0.137-0.042-0.283,0.037-0.328,0.178
				c-0.048,0.157-0.152,0.451-0.232,0.568c-0.075,0.089-0.527,0.234-0.76,0.203c-0.156-0.021-0.456-0.111-0.6-0.315
				c-0.089-0.125-0.111-0.282-0.07-0.481c0.123-0.592,0.777-0.575,0.852-0.571c0.146,0.008,0.271-0.104,0.279-0.25
				c0.008-0.146-0.103-0.271-0.248-0.279C23.898,33.434,23.081,33.607,22.906,34.45z M10.693,25.207
				c-0.005,0.009-0.443,0.793-0.608,1.035c-0.138,0.2-0.706,1.328-0.706,1.578c0,0.213,0.098,0.379,1.369,0.574
				c0.144,0.021,0.278-0.077,0.3-0.222c0.001-0.015,0.003-0.027,0.003-0.04c0-0.129-0.093-0.242-0.226-0.264
				c-0.306-0.047-0.667-0.119-0.866-0.178c0.124-0.313,0.429-0.96,0.558-1.147c0.18-0.261,0.616-1.043,0.635-1.077
				c0.022-0.041,0.033-0.085,0.033-0.129c0-0.094-0.049-0.184-0.135-0.232C10.925,25.034,10.763,25.08,10.693,25.207z
				 M12.118,23.837c-0.644,0.626-0.644,0.812-0.644,0.895c0,0.319,0.342,0.525,0.664,0.558l0.143,0.008
				c0.437,0.021,0.607,0.064,0.669,0.103c0.001,0.057,0.006,0.19,0.006,0.19c0.002,0.062,0.006,0.146,0.006,0.222
				c0,0.043-0.001,0.081-0.004,0.114c-0.079-0.018-0.189-0.054-0.265-0.076c-0.273-0.086-0.49-0.154-0.665-0.064
				c-0.215,0.106-0.242,0.361-0.281,0.746c-0.024,0.234-0.055,0.526-0.13,0.835c-0.033,0.138-0.047,0.292-0.047,0.448
				c0,0.4,0.099,0.811,0.229,0.985c0,0,0.045,0.06,0.054,0.072c-0.123,0.005-0.389-0.011-1.062-0.122
				c-0.144-0.023-0.279,0.075-0.302,0.219c-0.023,0.145,0.073,0.281,0.217,0.306c1.055,0.173,1.256,0.144,1.428,0.082l0.017-0.006
				h-0.001c0.197-0.031,0.272-0.154,0.3-0.225c0.018-0.045,0.025-0.089,0.025-0.132c0-0.176-0.124-0.34-0.227-0.478l-0.027-0.035
				c-0.044-0.062-0.127-0.354-0.127-0.666c0-0.108,0.01-0.22,0.035-0.323c0.084-0.344,0.116-0.656,0.142-0.906
				c0.012-0.1,0.024-0.215,0.037-0.297c0.072,0.018,0.163,0.046,0.228,0.067c0.217,0.067,0.422,0.132,0.588,0.102
				c0.313-0.058,0.365-0.368,0.365-0.667c0-0.078-0.004-0.154-0.007-0.227l-0.006-0.207c0-0.535-0.762-0.571-1.171-0.591
				L12.19,24.76c-0.061-0.006-0.115-0.025-0.153-0.045c0.083-0.114,0.26-0.316,0.446-0.496c0.053-0.052,0.081-0.121,0.081-0.191
				c0-0.065-0.025-0.133-0.075-0.184C12.389,23.737,12.222,23.734,12.118,23.837z M10.01,22.453
				C9.853,22.7,9.94,23.017,10.042,23.24c0.137,0.296,0.624,0.651,0.77,0.752c0.119,0.082,0.282,0.053,0.365-0.068
				c0.031-0.045,0.047-0.098,0.047-0.149c0-0.085-0.04-0.168-0.113-0.22c-0.244-0.169-0.539-0.425-0.59-0.537
				c-0.055-0.122-0.071-0.208-0.071-0.254c0-0.009,0.002-0.015,0.003-0.021c0.011-0.006,0.041-0.015,0.101-0.015
				c0.418,0,1.145,0.13,2.216,0.748c1.072,0.616,3.761,2.43,5.28,3.67c1.569,1.28,2.967,2.502,3.646,3.188
				c0.458,0.462,1.148,1.156,1.148,1.373c0,0.003,0,0.008-0.002,0.011c-0.009,0.089-0.011,0.108-0.318,0.207l-0.187,0.062
				c-0.527,0.186-0.796,0.447-0.796,0.779c0,0.104,0.032,0.23,0.069,0.375c0.027,0.111,0.082,0.32,0.082,0.435
				c0,0.025-0.005,0.044-0.01,0.058c-0.085,0.121-0.274,0.126-0.535,0.119c-0.146-0.004-0.285-0.009-0.408,0.03
				c-0.099,0.029-0.197,0.087-0.306,0.147c-0.157,0.088-0.396,0.223-0.479,0.154c-0.096-0.078-0.143-0.209-0.143-0.4
				c0-0.125,0.021-0.273,0.059-0.453l0.102-0.409c0.064-0.246,0.111-0.426,0.111-0.569c0-0.072-0.012-0.137-0.041-0.192
				c-0.069-0.142-0.223-0.203-0.593-0.339c-0.166-0.062-0.476-0.177-0.544-0.24c-0.053-0.07-0.086-0.221-0.086-0.403
				c0-0.053,0.002-0.108,0.006-0.165c0.016-0.16,0.102-0.535,0.131-0.666c0.004-0.021,0.009-0.041,0.009-0.062
				c0-0.12-0.081-0.229-0.202-0.259c-0.143-0.034-0.283,0.055-0.316,0.197c-0.015,0.052-0.121,0.514-0.143,0.742
				c-0.006,0.066-0.012,0.141-0.012,0.217c0,0.252,0.047,0.534,0.204,0.734c0.121,0.154,0.372,0.255,0.772,0.402
				c0.086,0.031,0.201,0.074,0.279,0.108c-0.017,0.095-0.055,0.241-0.087,0.359l-0.104,0.433c-0.027,0.12-0.072,0.326-0.072,0.555
				c0,0.286,0.072,0.604,0.336,0.822c0.365,0.296,0.808,0.045,1.072-0.104c0.078-0.044,0.156-0.09,0.201-0.104
				c0.039-0.012,0.15-0.01,0.24-0.007c0.293,0.008,0.735,0.021,0.984-0.351c0.172-0.251,0.082-0.606,0.001-0.922
				c-0.021-0.086-0.052-0.207-0.052-0.244c0-0.032,0.084-0.15,0.447-0.277l0.167-0.058c0.297-0.095,0.632-0.203,0.684-0.652
				c0.052-0.438-0.408-0.926-1.298-1.82c-0.689-0.696-2.102-1.933-3.686-3.225c-1.538-1.255-4.265-3.093-5.351-3.718
				c-1.175-0.675-1.995-0.817-2.478-0.817C10.238,22.198,10.083,22.336,10.01,22.453z M17.509,30.245
				c-0.032-0.195-0.069-0.417-0.077-0.565l0.003-0.347c0.003-0.087,0.005-0.167,0.005-0.242c0-0.249-0.03-0.432-0.183-0.534
				c0,0-0.129-0.081-0.269-0.176c-0.149-0.1-0.228-0.236-0.129-0.47c0.025-0.088,0.162-0.423,0.241-0.614
				c0.015-0.033,0.022-0.068,0.022-0.103c0-0.083-0.039-0.164-0.109-0.216l-1.345-0.986l-0.678-0.511c0,0,0.15,2.196,0.164,2.375
				c-0.125,0.167-0.401,0.542-0.485,0.694c-0.114,0.209-0.278,0.332-0.5,0.377l-0.846,0.154c-0.12,0.018-0.251,0.162-0.226,0.307
				c0.026,0.144,0.171,0.223,0.312,0.217l0.862-0.158c0.372-0.074,0.667-0.296,0.858-0.639c0.063-0.116,0.342-0.498,0.502-0.712
				c0.035-0.047,0.054-0.103,0.054-0.16c0-0.006,0-0.013-0.001-0.019c0,0-0.055-0.77-0.095-1.326
				c0.391,0.287,0.765,0.561,0.945,0.693c-0.069,0.166-0.156,0.387-0.183,0.48c-0.028,0.098-0.079,0.248-0.085,0.399
				c-0.007,0.173,0.093,0.41,0.292,0.562c0,0,0.18,0.119,0.271,0.18c0.064,0.029,0.082,0.129,0.082,0.184
				c0,0.074-0.003,0.158-0.006,0.225l-0.002,0.396c0.01,0.176,0.05,0.412,0.084,0.621c0.02,0.125,0.045,0.285,0.051,0.359
				c-0.037,0.057-0.12,0.172-0.192,0.27c-0.219,0.297-0.519,0.705-0.694,1.086l-0.204,0.46c-0.107,0.251-0.242,0.564-0.315,0.616
				c-0.1,0.057-0.58,0.146-0.865,0.199l-0.512,0.102c-0.28,0.064-0.64,0.213-0.928,0.332c-0.129,0.055-0.285,0.119-0.34,0.135
				c-0.074-0.004-0.303-0.078-0.456-0.129c-0.209-0.066-0.447-0.145-0.653-0.184c-0.181-0.033-0.217-0.039-0.217-0.145
				c0-0.027,0.001-0.061,0.006-0.103c0-0.013,0-0.026,0-0.038c0-0.287-0.229-0.576-0.719-0.906
				c-0.219-0.146-0.576-0.488-0.602-0.779v-0.029c0-0.24,0.235-0.51,0.426-0.729l0.16-0.188c0.098-0.126,0.135-0.257,0.135-0.379
				c0-0.021-0.006-0.04-0.007-0.06c0.249,0.016,0.502,0.031,0.502,0.031c0.145,0.009,0.27-0.102,0.279-0.248
				s-0.102-0.273-0.247-0.281l-0.932-0.059c-0.108-0.008-0.208,0.055-0.254,0.154c-0.016,0.035-0.025,0.072-0.025,0.11
				c0,0.067,0.027,0.135,0.075,0.185c0.009,0.011,0.08,0.086,0.08,0.158c0,0.021-0.006,0.041-0.021,0.061l-0.14,0.165
				c-0.238,0.271-0.558,0.638-0.558,1.077c0,0.025,0,0.052,0.003,0.078c0.055,0.635,0.755,1.121,0.833,1.175
				c0.47,0.315,0.485,0.464,0.486,0.466c-0.004,0.039-0.004,0.078-0.004,0.117c0,0.309,0.108,0.59,0.646,0.688
				c0.172,0.032,0.392,0.104,0.585,0.167c0.365,0.119,0.562,0.18,0.722,0.144c0.087-0.019,0.216-0.071,0.437-0.163
				c0.271-0.113,0.607-0.252,0.845-0.306l0.491-0.097c0.541-0.102,0.881-0.17,1.041-0.268c0.215-0.129,0.339-0.421,0.529-0.86
				l0.196-0.447c0.153-0.331,0.436-0.714,0.641-0.995c0.213-0.287,0.274-0.376,0.292-0.48c0.005-0.021,0.006-0.046,0.006-0.074
				C17.571,30.631,17.55,30.498,17.509,30.245z M19.15,18.381c-0.791,0.286-1.77,0.823-2.451,1.224
				c-0.842,0.495-1.834,1.021-2.415,1.277c-0.658,0.292-1.663,0.614-1.849,0.611c-0.145,0-0.265,0.116-0.266,0.263
				c-0.002,0.147,0.114,0.267,0.261,0.269c0.355,0.003,1.54-0.423,2.066-0.657c0.596-0.265,1.61-0.801,2.467-1.305
				c0.95-0.558,1.766-0.967,2.363-1.182c0.673-0.244,1.405-0.478,2.284-0.428c0.924,0.053,1.223,0.175,1.565,0.317
				c0.363,0.149,0.923,0.491,0.929,0.494c0.126,0.076,0.287,0.037,0.363-0.09c0.075-0.125,0.035-0.288-0.09-0.364
				c-0.023-0.015-0.602-0.366-1.001-0.532c-0.423-0.174-0.796-0.302-1.737-0.355C20.664,17.868,19.844,18.13,19.15,18.381z
				 M3.012,23.356L2.738,24.35L1.34,23.407l0.003-0.012L3.012,23.356z M3.87,26.426l0.298-1.074l-0.753-0.549l0.412-1.488
				l0.921-0.06l0.321-1.158l-4.358,0.421l-0.359,1.295L3.87,26.426z M5.887,21.977c0.124-0.183,0.249-0.567,0.283-0.768
				c0.053-0.32,0.083-0.657-0.463-1.043L2.792,18.16l0.625-0.898l3.185,2.196c0.718,0.508,1.015,1.197,0.467,2.003
				c-0.115,0.168-0.264,0.39-0.264,0.39L5.887,21.977z M9.147,15.047l-0.83,0.605l-0.511-1.616l0.01-0.007L9.147,15.047z
				 M7.92,17.987l0.896-0.653l-0.251-0.901l1.244-0.906l0.757,0.532l0.968-0.705l-3.671-2.406l-1.081,0.789L7.92,17.987z
				 M13.328,12.493l-1.609-1.612l1.233-0.305l0.985,1.153l0.363-1.486l1.159-0.285l-0.698,2.183l1.784,1.788l-1.263,0.311
				l-1.125-1.283l-0.403,1.66l-1.2,0.297L13.328,12.493z M24.695,42.066l-0.006,0.002l0.145,1.41l-0.211,0.095l-0.931-1.056
				l-0.005,0.002l0.547,1.229l-0.268,0.121l-0.654-1.473l0.439-0.199l0.822,0.949l0.003-0.002l-0.149-1.252l0.428-0.191l0.652,1.473
				l-0.268,0.121L24.695,42.066z M26.33,42.342c0.067,0.001,0.207-0.014,0.34-0.098c0.105-0.07,0.168-0.192,0.08-0.329
				c-0.061-0.097-0.145-0.104-0.307-0.094l-0.17,0.009c-0.182,0.012-0.335-0.041-0.445-0.217c-0.152-0.244-0.034-0.498,0.193-0.643
				c0.145-0.092,0.268-0.118,0.314-0.132l0.119,0.217c-0.075,0.015-0.176,0.03-0.291,0.104c-0.125,0.077-0.146,0.186-0.088,0.279
				c0.064,0.103,0.157,0.098,0.26,0.092l0.197-0.01c0.215-0.013,0.346,0.026,0.464,0.217c0.175,0.278,0.062,0.535-0.195,0.7
				c-0.136,0.087-0.253,0.134-0.347,0.136L26.33,42.342z M27.383,40.32l-0.281,0.225l-0.146-0.185l0.791-0.633l0.145,0.185
				l-0.278,0.224l0.853,1.078l-0.23,0.185L27.383,40.32z M28.305,39.219l0.599-0.598l0.164,0.166l-0.388,0.391l0.299,0.305
				l0.368-0.367l0.165,0.168l-0.367,0.367l0.332,0.338l0.404-0.405l0.166,0.169l-0.613,0.613L28.305,39.219z M22.021,43.838
				l0.013-0.785l0.005-0.002l0.395,0.672L22.021,43.838z M22.766,44.269l0.293-0.082l-0.928-1.416l-0.309,0.088l-0.09,1.699
				l0.285-0.079l0.008-0.405l0.529-0.149L22.766,44.269L22.766,44.269z M30.186,38.213l-0.369-0.297l0.075-0.095
				c0.103-0.13,0.199-0.177,0.343-0.062c0.125,0.104,0.123,0.236,0.025,0.359L30.186,38.213L30.186,38.213z M30.707,39.014
				l0.184-0.23l-0.537-0.435l0.041-0.052c0.068-0.086,0.147-0.119,0.271-0.069l0.506,0.204l0.193-0.246l-0.605-0.221
				c-0.149-0.055-0.213-0.019-0.256,0.021l-0.007-0.004c0.091-0.158,0.063-0.349-0.099-0.48c-0.229-0.186-0.449-0.114-0.628,0.109
				l-0.313,0.393L30.707,39.014L30.707,39.014z M30.895,36.425l0.053-0.085c0.173-0.284,0.442-0.293,0.742-0.107
				c0.299,0.186,0.41,0.433,0.236,0.715l-0.05,0.086L30.895,36.425L30.895,36.425z M31.912,37.404l0.219-0.357
				c0.234-0.383,0.18-0.797-0.279-1.082c-0.449-0.279-0.82-0.194-1.083,0.234l-0.22,0.358L31.912,37.404L31.912,37.404z
				 M32.537,35.027l-0.589-0.516l0.003-0.005l0.764,0.13L32.537,35.027L32.537,35.027z M33.342,34.732l0.127-0.277l-1.672-0.199
				l-0.135,0.295l1.234,1.164l0.121-0.27l-0.301-0.268l0.229-0.504L33.342,34.732z M32.916,31.835l-0.004,0.005l1.162,0.801
				l-0.062,0.223l-1.402,0.035v0.005l1.283,0.372l-0.082,0.284l-1.539-0.448l0.133-0.465l1.25-0.02l0.002-0.004l-1.047-0.693
				l0.13-0.453l1.539,0.448l-0.081,0.284L32.916,31.835z M2.68,28.011c0,8.503,6.867,15.423,15.307,15.423
				c0.916,0,1.833-0.083,2.728-0.244l-0.024-0.135c-0.886,0.162-1.796,0.242-2.704,0.242c-8.366,0-15.173-6.857-15.173-15.286H2.68z
				 M17.987,12.724c8.367,0,15.171,6.857,15.171,15.287c0,0.9-0.078,1.802-0.231,2.681l0.132,0.023
				c0.156-0.886,0.234-1.797,0.234-2.704c0-8.504-6.865-15.423-15.306-15.423V12.724z M1.668,28.011
				c0,9.066,7.321,16.442,16.319,16.442c0.976,0,1.955-0.088,2.91-0.261l-0.11-0.618c-0.918,0.166-1.859,0.251-2.799,0.251
				c-8.655,0-15.695-7.095-15.695-15.814H1.668z M17.987,12.196c8.655,0,15.695,7.094,15.695,15.814c0,0.934-0.08,1.867-0.24,2.776
				l0.613,0.11c0.166-0.945,0.25-1.917,0.25-2.887c0-9.066-7.319-16.443-16.318-16.443V12.196z M1.167,28.011
				c0,9.345,7.545,16.946,16.819,16.946c1.007,0,2.014-0.09,2.995-0.269l-0.022-0.134c-0.975,0.177-1.975,0.266-2.972,0.266
				c-9.2,0-16.685-7.54-16.685-16.81H1.167z M17.987,11.2c9.201,0,16.685,7.542,16.685,16.811c0,0.991-0.087,1.985-0.258,2.95
				l0.133,0.023c0.173-0.974,0.26-1.974,0.26-2.974c0-9.344-7.545-16.946-16.82-16.946V11.2z M25.709,17.178l-0.062,2.915
				c-0.001,0.09,0.043,0.175,0.116,0.226c0.006,0.004,0.668,0.458,1.021,0.974c0.343,0.504,0.429,1.101,0.429,1.107
				c0.021,0.146,0.152,0.247,0.298,0.227c0.132-0.019,0.228-0.132,0.228-0.263c0-0.012,0-0.024-0.002-0.036
				c-0.006-0.03-0.102-0.725-0.521-1.336c-0.315-0.464-0.813-0.861-1.038-1.028c0.003-0.188,0.029-1.418,0.041-2.046
				c1.893,0.801,2.883,2.445,2.883,4.874c0,3.481-2.115,5.913-5.146,5.913c-2.75,0-3.689-2.306-4.311-3.831l-0.209-0.501
				c-0.205-0.466-0.512-0.779-0.908-0.93c-0.748-0.284-1.598,0.112-1.917,0.26c-0.132,0.062-0.189,0.218-0.129,0.352
				c0.061,0.132,0.217,0.19,0.349,0.13c0.265-0.124,0.969-0.452,1.512-0.246c0.265,0.101,0.465,0.312,0.614,0.649l0.201,0.486
				c0.635,1.557,1.695,4.161,4.797,4.161c3.34,0,5.672-2.65,5.672-6.443C29.627,19.859,28.252,17.928,25.709,17.178z"/>
		</g>
	</g>
</g>
</svg>
