<?xml version="1.0" encoding="UTF-8"?>
<svg width="40px" height="40px" viewBox="0 0 40 40" version="1.1" xmlns="http://www.w3.org/2000/svg" xmlns:xlink="http://www.w3.org/1999/xlink">
    <!-- Generator: Sketch 46.2 (44496) - http://www.bohemiancoding.com/sketch -->
    <title>ic/tiles/video_hover</title>
    <desc>Created with Sketch.</desc>
    <defs>
        <linearGradient x1="50%" y1="0%" x2="50%" y2="88.9990234%" id="linearGradient-1">
            <stop stop-color="#D00532" offset="0%"></stop>
            <stop stop-color="#B8042B" offset="100%"></stop>
        </linearGradient>
    </defs>
    <g id="Symbols" stroke="none" stroke-width="1" fill="none" fill-rule="evenodd">
        <g id="ic/tiles/video_hover">
            <g>
                <path d="M20,37.7777778 C10.2,37.7777778 2.22222222,29.8 2.22222222,20 C2.22222222,10.2 10.2,2.22222222 20,2.22222222 C29.8,2.22222222 37.7777778,10.2 37.7777778,20 C37.7777778,29.8 29.8,37.7777778 20,37.7777778 L20,37.7777778 Z" id="Combined-Shape" fill="url(#linearGradient-1)"></path>
                <path d="M20,0 C31.04,0 40,8.96 40,20 C40,31.04 31.04,40 20,40 C8.96,40 0,31.04 0,20 C0,8.96 8.96,0 20,0 Z M20,37.7777778 C29.8,37.7777778 37.7777778,29.8 37.7777778,20 C37.7777778,10.2 29.8,2.22222222 20,2.22222222 C10.2,2.22222222 2.22222222,10.2 2.22222222,20 C2.22222222,29.8 10.2,37.7777778 20,37.7777778 Z M16,29 L16,11 L28,20 L16,29 Z" id="icons/ic_video" fill="#FFFFFF"></path>
            </g>
        </g>
    </g>
</svg>