<?xml version="1.0" encoding="UTF-8" standalone="no"?>
<svg width="130px" height="163px" viewBox="0 0 130 163" version="1.1" xmlns="http://www.w3.org/2000/svg" xmlns:xlink="http://www.w3.org/1999/xlink">
    <!-- Generator: Sketch 3.8.2 (29753) - http://www.bohemiancoding.com/sketch -->
    <title>Logo-Ajax</title>
    <desc>Created with Sketch.</desc>
    <defs>
        <filter x="-50%" y="-50%" width="200%" height="200%" filterUnits="objectBoundingBox" id="filter-1">
            <feOffset dx="0" dy="0" in="SourceAlpha" result="shadowOffsetOuter1"></feOffset>
            <feGaussianBlur stdDeviation="2.5" in="shadowOffsetOuter1" result="shadowBlurOuter1"></feGaussianBlur>
            <feColorMatrix values="0 0 0 0 0   0 0 0 0 0   0 0 0 0 0  0 0 0 0.25 0" type="matrix" in="shadowBlurOuter1" result="shadowMatrixOuter1"></feColorMatrix>
            <feMerge>
                <feMergeNode in="shadowMatrixOuter1"></feMergeNode>
                <feMergeNode in="SourceGraphic"></feMergeNode>
            </feMerge>
        </filter>
    </defs>
    <g id="1.-Homepage---responsive-(26-mei)" stroke="none" stroke-width="1" fill="none" fill-rule="evenodd">
        <g id="1.1-Home---Ajax-Actueel-1440" transform="translate(-235.000000, 0.000000)">
            <g id="Header">
                <g id="Logo-Ajax" filter="url(#filter-1)" transform="translate(240.000000, 0.000000)">
                    <polygon id="Fill-4" fill="#D50032" points="0 0 120 0 120 158 0 158"></polygon>
                    <path d="M60.9473651,21 L62.6582054,25.9392921 L67.8676373,26.0456241 L63.7144485,29.204713 L65.2253205,34.2108913 L60.9473651,31.2250206 L56.6694097,34.2108913 L58.1785726,29.204713 L54.0270929,26.0456241 L59.2365248,25.9392921 L60.9473651,21 Z M94.7642348,28.9200177 L94.1010919,34.1062743 L98.714037,36.5347596 L93.5917708,37.5020376 L92.7149865,42.6574238 L90.2162367,38.0679982 L85.0597879,38.8243273 L88.6369995,35.0221014 L86.3279633,30.3366341 L91.0383288,32.5730358 L94.7642348,28.9200177 Z M35.7684444,30.7396666 L33.4559899,35.4251339 L37.0314923,39.2290748 L31.8750435,38.4693157 L29.3711663,43.0570262 L28.4995094,37.9016401 L23.3806615,36.932647 L27.9953157,34.5075918 L27.3338819,29.3196201 L31.0580788,32.9743532 L35.7684444,30.7396666 Z M34.1105871,101.385264 C33.77047,101.419564 33.5277734,101.723125 33.5602469,102.064416 C33.5944295,102.403993 33.8986549,102.650957 34.238772,102.618372 C34.2609907,102.614942 36.3974047,102.405708 38.4945086,102.879056 C40.7334705,103.383276 43.8235797,104.470606 45.3019782,105.082873 L45.5480931,105.184059 C51.2412091,107.542228 52.5025479,107.653705 53.051179,107.010568 C54.0390568,105.856352 52.5743314,104.499762 52.0923564,104.055568 C51.8411141,103.822324 51.4531413,103.837759 51.2189903,104.088154 C51.1113151,104.208206 51.0566229,104.360844 51.0566229,104.508337 C51.0566229,104.67641 51.123279,104.842768 51.2548821,104.964535 C51.9983542,105.650548 52.1367938,105.971259 52.1419212,106.113607 C51.6872923,106.120467 50.2926412,105.810046 46.0198133,104.036703 L45.7736984,103.937231 C44.2542807,103.309529 41.0752967,102.189614 38.7628422,101.671674 C36.4640608,101.153734 34.2062985,101.374973 34.1105871,101.385264 Z M59.7424276,97.6962298 C59.7407185,97.7099501 59.6056971,98.9842188 59.0228834,100.232762 C58.405887,101.563627 56.3412565,105.166909 56.320747,105.202925 C56.1891439,105.431024 56.2181991,105.719149 56.3874031,105.918093 C56.5617345,106.118752 56.842032,106.185638 57.0830195,106.087881 C57.1069473,106.077591 59.5595506,105.096593 60.373097,104.880499 L63.6358285,104.060713 C63.9639816,103.973247 64.08533,103.649106 63.9981643,103.318105 C63.9178351,102.985388 63.6802659,102.796735 63.3452762,102.858476 L60.0620351,103.679976 C59.6552619,103.789738 58.9288812,104.050423 58.2469378,104.307678 C58.9049533,103.131166 59.7646463,101.568772 60.1406552,100.757562 C60.8123437,99.3117899 60.9627473,97.8831683 60.9695838,97.8214272 C60.9695838,97.7991317 60.9712929,97.7785514 60.9712929,97.759686 C60.9712929,97.4458352 60.7354328,97.1765751 60.4158253,97.1422745 C60.0791264,97.1079739 59.7766102,97.3549385 59.7424276,97.6962298 Z M48.0810255,110.552109 C47.9887324,110.881396 48.1835734,111.220972 48.5134357,111.311869 C48.5271087,111.315299 49.9046685,111.701181 50.8566545,112.7302 C51.3796487,113.297876 51.8735876,114.395496 52.0239911,115.090084 C52.1538851,115.673195 52.2359234,116.897728 52.2393417,116.911448 C52.2615604,117.252739 52.5555309,117.511709 52.8990663,117.489414 C53.2374743,117.465403 53.493844,117.168703 53.4699161,116.827411 C53.468207,116.774245 53.3793322,115.496547 53.2289286,114.820824 C53.0392151,113.961593 52.4615287,112.642733 51.7624941,111.888119 C50.5609748,110.591555 48.9014085,110.131927 48.8330432,110.114776 C48.5031809,110.025595 48.166482,110.221108 48.0810255,110.552109 Z M80.8997626,101.579062 C80.2468745,102.28394 80.4519702,103.853195 81.6329799,107.178642 C82.0602627,108.377449 81.8141478,109.258975 81.6534895,109.346442 C81.4330116,109.463064 80.7203038,109.188659 80.1802184,108.571248 C80.1733819,108.562672 80.1665453,108.555812 80.1597088,108.547237 C78.4112676,106.739593 77.4797911,106.180493 76.7158095,106.489199 C75.8458617,106.83735 75.198101,109.168079 74.8870391,110.528099 C74.377718,112.759356 74,113.349327 73.8017408,113.501964 C73.6000633,113.078352 73.453078,111.817803 73.453078,110.502374 C73.453078,110.246834 73.4582054,109.989579 73.4718785,109.735754 C73.4718785,109.732324 73.4752967,109.686018 73.4752967,109.608842 C73.4752967,108.909109 73.4103497,105.640258 72.3387245,105.250946 C71.2243709,104.842768 69.4622567,106.672707 69.4451654,106.691573 C69.0777022,107.08946 67.1874031,109.21953 65.7192594,111.972156 C64.3502453,114.536129 63.1880361,117.753529 63.1367621,117.889016 C63.0205412,118.211442 63.1880361,118.566454 63.5076436,118.683076 C63.8272511,118.799698 64.1827504,118.63334 64.2989714,118.310914 C64.3092261,118.278329 65.4833993,115.038633 66.8079759,112.555267 C68.2351005,109.878102 70.1442,107.760037 70.352714,107.528508 C70.769742,107.07231 71.4824498,106.588671 71.8362399,106.461758 C72.0396265,106.976268 72.2430131,108.44605 72.2430131,109.423618 C72.2430131,109.514515 72.2430131,109.600267 72.2361766,109.680873 C72.2310492,109.838656 72.2207944,110.159367 72.2207944,110.564115 C72.2207944,111.798938 72.3233423,113.82439 72.9984491,114.494968 C73.2086723,114.702487 73.4752967,114.810534 73.7504668,114.796814 C75.0870074,114.729927 75.6407659,112.786796 76.0919766,110.804219 C76.462858,109.171509 76.9465422,107.984707 77.1892388,107.667426 C77.3755341,107.724022 77.9173287,108.007002 79.2743789,109.408183 C79.2675423,109.401323 79.2572875,109.394463 79.2521602,109.387603 C80.0332331,110.28628 81.3150815,110.934562 82.2380123,110.435487 C82.8515904,110.106201 83.1028327,109.339582 83.1028327,108.483781 C83.1028327,107.91782 82.9934483,107.308984 82.8020256,106.763604 C81.9303687,104.324828 81.7628739,103.232353 81.7628739,102.752144 C81.7628739,102.53948 81.7953474,102.452013 81.8141478,102.415998 C82.2004115,102.01468 83.0378857,102.024971 84.5983225,102.462304 C86.1946511,102.906497 88.134515,103.58222 88.1498971,103.58908 C88.4695047,103.700557 88.8232948,103.530769 88.9378066,103.208343 C89.047191,102.885917 88.8762779,102.53262 88.5566704,102.419428 C88.4763412,102.390272 86.5638234,101.72484 84.9281848,101.266926 C83.3848394,100.838168 81.8346574,100.579199 80.8997626,101.579062 Z M72.8429182,101.145159 C72.6737142,101.951224 72.7950625,102.656102 73.2069631,103.237498 C73.7504668,104.007547 74.7246716,104.38657 75.4561798,104.484326 C76.266308,104.594088 77.9036556,104.218496 78.4061402,103.496468 C78.7701852,102.973383 79.0915018,101.934074 79.1273936,101.817452 C79.2213958,101.489881 79.0402279,101.143444 78.7137838,101.042257 C78.390758,100.9445 78.0489318,101.128009 77.9446748,101.45558 C77.8318721,101.824312 77.5857572,102.510325 77.3977528,102.783015 C77.2234214,102.990534 76.1654692,103.33011 75.6185472,103.256363 C75.2527932,103.208343 74.5503402,102.997394 74.2136414,102.520615 C74.0068365,102.229059 73.9538535,101.862042 74.0512739,101.397269 C74.338408,100.016668 75.8714987,100.056114 76.04583,100.064689 C76.3859471,100.083554 76.6782086,99.8228695 76.6987182,99.4815781 C76.7158095,99.1402867 76.4594398,98.8487313 76.1193227,98.829866 C75.1673366,98.7715549 73.2514005,99.1797325 72.8429182,101.145159 Z M44.2286438,79.576917 C44.2166799,79.5974974 43.189492,81.4291516 42.8032284,81.991682 C42.4802026,82.4598858 41.1487894,85.0907448 41.1487894,85.6738557 C41.1487894,86.171215 41.3778129,86.5588122 44.3551195,87.0150107 C44.6918183,87.0664617 45.0080076,86.8349323 45.0592815,86.497071 C45.0626998,86.4644854 45.0661181,86.4336149 45.0661181,86.4027443 C45.0661181,86.1026137 44.8473493,85.8384988 44.5379965,85.7904779 C43.8201614,85.6807158 42.9758506,85.5109277 42.5092578,85.3754401 C42.7998101,84.6431215 43.5142269,83.1338933 43.8167432,82.6965602 C44.2388986,82.0877238 45.2592499,80.2629298 45.3036873,80.1840383 C45.3566704,80.0879966 45.3823073,79.9850946 45.3823073,79.8821927 C45.3823073,79.6643837 45.2677955,79.4551498 45.0661181,79.3419577 C44.7704384,79.1738845 44.3927204,79.2802165 44.2286438,79.576917 Z M47.566577,76.3800974 C46.0574141,77.8395896 46.0574141,78.2769228 46.0574141,78.4672913 C46.0574141,79.2116152 46.8589967,79.6935392 47.6127235,79.7672856 L47.9460041,79.7861509 C48.9697737,79.8358869 49.3680013,79.9370737 49.5149865,80.0262554 C49.5184048,80.1583129 49.5286596,80.4704487 49.5286596,80.4704487 C49.533787,80.6162264 49.5423326,80.810025 49.5423326,80.9883883 C49.5423326,81.0878602 49.5406235,81.1770419 49.5320779,81.2542183 C49.3474917,81.2130575 49.0894129,81.129021 48.9116632,81.075855 C48.2724482,80.8751962 47.7648362,80.7174133 47.3546447,80.9249322 C46.8521602,81.1753268 46.7889223,81.7687279 46.6966292,82.6674046 C46.6385188,83.2144998 46.5667352,83.8953675 46.3924039,84.615681 C46.315493,84.938107 46.2813103,85.2982637 46.2813103,85.6601354 C46.2813103,86.5965429 46.512043,87.5518157 46.8179775,87.9599933 C46.8179775,87.9599933 46.9239437,88.1006259 46.9444532,88.1297815 C46.6573192,88.1400717 46.0334863,88.105771 44.4559582,87.8450862 C44.1192594,87.7902051 43.8030701,88.0200194 43.7483779,88.3561657 C43.6936857,88.692312 43.919291,89.0113079 44.2559899,89.067904 C46.7273936,89.4726515 47.1991138,89.4023352 47.6024687,89.2599875 L47.6417788,89.2462673 L47.6383605,89.2462673 C48.0998259,89.1725209 48.2775756,88.8861106 48.3425226,88.7214675 C48.3852508,88.6168506 48.400633,88.5139486 48.400633,88.4144768 C48.400633,88.0045841 48.1100807,87.622132 47.8690932,87.299706 L47.8058554,87.2173845 C47.7033075,87.0733218 47.5084665,86.3924541 47.5084665,85.6635655 C47.5084665,85.4114558 47.5323944,85.152486 47.5905048,84.9089514 C47.7870549,84.1063165 47.8622567,83.3791429 47.9220763,82.796032 C47.9494224,82.5610727 47.9784776,82.2935277 48.009242,82.1031591 C48.178446,82.1443199 48.3920874,82.2094911 48.5442,82.259227 C49.051812,82.4152949 49.5320779,82.5679328 49.9217598,82.4959014 C50.6566862,82.362129 50.7763254,81.6366704 50.7763254,80.9386524 C50.7763254,80.7585741 50.7677797,80.5802107 50.7609432,80.4121376 L50.7472701,79.9267836 C50.7472701,78.6782403 48.961228,78.5959187 48.0024054,78.5496129 L47.735781,78.5341776 C47.5939231,78.5204573 47.4674474,78.4741515 47.3768634,78.4295606 C47.5699953,78.1620157 47.9870233,77.6920969 48.4211426,77.270199 C48.5459092,77.1501468 48.6108561,76.9889338 48.6108561,76.8260057 C48.6108561,76.6716529 48.5527457,76.515585 48.4365248,76.3955327 C48.2006647,76.1485681 47.8092736,76.139993 47.566577,76.3800974 Z M42.6271878,73.1506922 C42.2597246,73.726943 42.4648204,74.4678368 42.7040987,74.9874915 C43.0254154,75.6786494 44.1654059,76.5070098 44.5072322,76.7419692 C44.7858205,76.9357678 45.1686659,76.8671665 45.3635069,76.5841862 C45.4369995,76.4778543 45.4728913,76.354372 45.4728913,76.2343197 C45.4728913,76.037091 45.3805982,75.8432924 45.2079759,75.7232402 C44.6371261,75.3270678 43.944928,74.7302367 43.8252888,74.4695518 C43.6953948,74.1848565 43.6595031,73.9841978 43.6595031,73.8778658 C43.6595031,73.8555704 43.6646305,73.8435651 43.6663396,73.8298449 C43.6919766,73.8161246 43.7603418,73.7955443 43.9021997,73.7955443 C44.883241,73.7955443 46.5838266,74.0991049 49.0945403,75.5397318 C51.6069631,76.9769286 57.9068207,81.2079124 61.466941,84.1028864 C65.1432822,87.0904721 68.4179775,89.9408552 70.0074695,91.539265 C71.0808039,92.6180202 72.697642,94.2370103 72.697642,94.7446598 C72.697642,94.7515199 72.697642,94.7618101 72.6925146,94.7686702 C72.6737142,94.9779041 72.6668777,95.0207799 71.9473334,95.2523093 L71.511505,95.3963719 C70.274094,95.830275 69.6451337,96.4408264 69.6451337,97.2125908 C69.6451337,97.4578404 69.7220446,97.7511108 69.8075012,98.0906872 C69.8724482,98.347942 69.9989239,98.8367261 69.9989239,99.102556 C69.9989239,99.1625822 69.9886691,99.207173 69.9784143,99.2380436 C69.778446,99.5210238 69.3340718,99.531314 68.7222029,99.5141637 C68.3803766,99.5055886 68.0556417,99.4952984 67.7667985,99.5861951 C67.5360658,99.6547963 67.303624,99.7902839 67.0506726,99.9292015 C66.6832094,100.135005 66.1243235,100.450571 65.9260643,100.289358 C65.7038772,100.107565 65.5944928,99.8040041 65.5944928,99.3546657 C65.5944928,99.0648253 65.6423485,98.7166738 65.7312233,98.2999211 L65.9687925,97.3446483 C66.1209052,96.7701126 66.2285805,96.3499297 66.2285805,96.0154985 C66.2285805,95.8457103 66.2029435,95.6982176 66.1328691,95.5661601 C65.9705017,95.2351589 65.6132932,95.0928113 64.7450546,94.7755304 C64.3553727,94.6314677 63.6307011,94.3639227 63.4700427,94.21643 C63.3452762,94.0500718 63.2683652,93.7019204 63.2683652,93.2748774 C63.2683652,93.1513951 63.2752018,93.0227677 63.2837474,92.8907102 C63.3196392,92.5151182 63.5213167,91.642167 63.5896819,91.3368913 C63.5999367,91.2871553 63.6101915,91.2408495 63.6101915,91.1911136 C63.6101915,90.9115633 63.4187688,90.6577386 63.1367621,90.5891373 C62.8034816,90.5085308 62.4736192,90.7160497 62.3932901,91.0470509 C62.3608166,91.1688181 62.1112834,92.2458582 62.0617186,92.7792332 C62.0463364,92.9353011 62.0343725,93.1068043 62.0343725,93.2851676 C62.0343725,93.8734236 62.1420478,94.5319958 62.5112201,94.9984845 C62.7949359,95.3586412 63.382877,95.5936006 64.3211901,95.9383221 C64.5211584,96.0103534 64.7929103,96.1115403 64.9757873,96.1904318 C64.9364773,96.4116709 64.8493116,96.7546773 64.7724007,97.0290824 L64.5262858,98.0375212 C64.4647571,98.3187864 64.3587909,98.8007104 64.3587909,99.3323703 C64.3587909,100.001233 64.5262858,100.742127 65.1467004,101.251491 C65.9995569,101.942649 67.0369995,101.357823 67.655705,101.009672 C67.8385821,100.908485 68.0248774,100.802153 68.1291344,100.769567 C68.2214274,100.740412 68.4812154,100.747272 68.6914385,100.752417 C69.3785093,100.771282 70.4142428,100.800438 70.9987656,99.9360616 C71.4004115,99.3495206 71.1901883,98.5194452 71.0004748,97.7854115 C70.9526191,97.5830377 70.8791264,97.3017725 70.8791264,97.2125908 C70.8791264,97.1388444 71.0739674,96.8644393 71.9251147,96.5660238 L72.3182149,96.4322513 C73.0138313,96.2110121 73.7983225,95.9589024 73.9196708,94.9110179 C74.03931,93.8871438 72.9625574,92.7500776 70.8791264,90.6628837 C69.2622883,89.0370334 65.9534103,86.1540646 62.2428865,83.1390384 C58.6417471,80.2097638 52.2530147,75.9238989 49.7081184,74.4626917 C46.9564172,72.8882923 45.0336446,72.5572912 43.9021997,72.5572912 C43.1621459,72.5572912 42.7998101,72.8797172 42.6271878,73.1506922 Z M60.1970565,91.3334612 C60.1218547,90.8772627 60.0363982,90.359323 60.0175977,90.0146016 L60.0244342,89.2051065 C60.0312708,89.0010177 60.0363982,88.8140792 60.0363982,88.639146 C60.0363982,88.0594652 59.9663238,87.6324222 59.6074062,87.3923177 C59.6074062,87.3923177 59.30489,87.2036642 58.978446,86.9841401 C58.6280741,86.7491807 58.445197,86.4301848 58.6759297,85.8865197 C58.7357493,85.6824309 59.0553569,84.9003763 59.239943,84.454468 C59.2758348,84.3772915 59.291217,84.29497 59.291217,84.2143635 C59.291217,84.0205649 59.200633,83.8319114 59.0365564,83.7118591 L55.8849185,81.4085712 L54.2954265,80.218339 C54.2954265,80.218339 54.6475075,85.3428545 54.6782719,85.7596073 C54.3860104,86.1489196 53.7399589,87.0235859 53.5434088,87.3785975 C53.2750752,87.8656666 52.8905207,88.1537919 52.3726539,88.2584089 L50.3917708,88.6202806 C50.1114733,88.6614414 49.8021206,88.9958726 49.8619402,89.335449 C49.9217598,89.6698802 50.263586,89.8551036 50.5934483,89.8413834 L52.6136414,89.4726515 C53.4852983,89.2977183 54.1774964,88.7814936 54.6235797,87.9805737 C54.7722741,87.7095986 55.4251622,86.8194971 55.8011711,86.3204227 C55.8832094,86.2106607 55.9276468,86.0803183 55.9276468,85.9465458 C55.9276468,85.9328255 55.9276468,85.9156752 55.9259376,85.9019549 C55.9259376,85.9019549 55.7960437,84.1080315 55.7037506,82.8080373 C56.6198449,83.4768997 57.4949201,84.1166067 57.9170755,84.4253124 C57.7564172,84.8146247 57.5530305,85.3274192 57.4897927,85.5486584 C57.4248457,85.7750426 57.3052065,86.1249091 57.2898243,86.4799207 C57.272733,86.8829532 57.506884,87.4369086 57.9751859,87.7902051 C57.9751859,87.7902051 58.3956322,88.0663253 58.6109828,88.208673 C58.7613863,88.2772742 58.8024054,88.5105186 58.8024054,88.6357159 C58.8024054,88.8089341 58.7955689,89.0061628 58.7887324,89.1605157 L58.783605,90.086633 C58.8075328,90.4965256 58.9015351,91.0487659 58.9818642,91.535835 C59.0280108,91.8273904 59.0861212,92.1995524 59.1015034,92.3744856 C59.0160468,92.5065431 58.8212059,92.7740881 58.6520019,93.0021873 C58.1392625,93.6950602 57.4368096,94.648618 57.024909,95.5370046 L56.5480614,96.6106146 C56.2968191,97.1954405 55.982339,97.9277591 55.8097167,98.0478114 C55.5772749,98.1815839 54.4526666,98.3891027 53.7826871,98.5143001 L52.582877,98.7509745 C51.9265707,98.9001823 51.083969,99.2466187 50.4088622,99.5261689 C50.1063459,99.6513663 49.7405919,99.8022891 49.612407,99.8383048 C49.4397848,99.8314446 48.9031176,99.6565114 48.5442,99.5398892 C48.0536794,99.3821063 47.4965026,99.2020279 47.0128185,99.1111312 C46.5889539,99.0339548 46.5052065,99.0185195 46.5052065,98.7715549 C46.5052065,98.7080987 46.5086248,98.6309222 46.5188796,98.5331654 C46.5205887,98.5022949 46.5205887,98.4731393 46.5205887,98.4439838 C46.5205887,97.7734063 45.9822124,97.0993987 44.8353853,96.3310644 C44.322646,95.988058 43.4851717,95.1905681 43.4253521,94.5114155 L43.4253521,94.4428142 C43.4253521,93.8819987 43.9774015,93.252582 44.4234847,92.7449325 L44.7977845,92.3041693 C45.026808,92.0091838 45.1139737,91.7056231 45.1139737,91.4192128 C45.1139737,91.3711919 45.1003007,91.3266011 45.0968824,91.2802952 C45.6796962,91.3163109 46.2744738,91.3523266 46.2744738,91.3523266 C46.6128818,91.374622 46.9068524,91.1156521 46.9273619,90.7743608 C46.9478715,90.4330694 46.6897927,90.1380839 46.3496756,90.1175035 L44.167115,89.980301 C43.9124545,89.9631507 43.6800127,90.1089284 43.5723374,90.3404577 C43.5347365,90.4227792 43.5142269,90.5102459 43.5142269,90.5994275 C43.5142269,90.7572105 43.5774648,90.9132784 43.6885583,91.0299005 C43.710777,91.055626 43.8748536,91.2305593 43.8748536,91.3986324 C43.8748536,91.4466533 43.8611806,91.4946742 43.8252888,91.539265 L43.4971356,91.9251472 C42.9399589,92.557994 42.1896503,93.413795 42.1896503,94.4393841 C42.1896503,94.4976952 42.1913594,94.5594363 42.1964868,94.6194625 C42.3246716,96.1012501 43.9654376,97.2383163 44.1483146,97.3617986 C45.2489951,98.0975473 45.2848868,98.4439838 45.286596,98.4491289 C45.2780503,98.5400256 45.2763412,98.6309222 45.2763412,98.7218189 C45.2763412,99.4438474 45.5310017,100.09899 46.7906314,100.328804 C47.1939864,100.404265 47.710144,100.570623 48.1630638,100.718116 C49.0176294,100.995951 49.4790948,101.136584 49.8533945,101.054262 C50.0567811,101.009672 50.3592974,100.886189 50.8771641,100.67181 C51.5112518,100.40941 52.3008704,100.085269 52.856338,99.960072 L54.0065833,99.7336878 C55.2730495,99.4970134 56.0695047,99.3375154 56.4438044,99.1111312 C56.9479981,98.8092856 57.2385504,98.1284179 57.6829245,97.1028288 L58.1426808,96.0583743 C58.5015984,95.2866099 59.1630321,94.3930782 59.643298,93.737936 C60.1423643,93.0656435 60.2859313,92.8598397 60.3286596,92.6163051 C60.3406235,92.5648542 60.3423326,92.5082581 60.3423326,92.4430869 C60.3423326,92.232138 60.2927678,91.9217172 60.1970565,91.3334612 Z M64.0408925,63.6494151 C62.1881943,64.3165625 59.8962494,65.5702509 58.2999209,66.5049433 C56.3275835,67.6591599 54.0014559,68.8854077 52.6426966,69.4856689 C51.1010603,70.1682516 48.7475866,70.9177206 48.3117582,70.9108605 C47.9733502,70.9091454 47.6913436,71.1818355 47.6896344,71.5231269 C47.684507,71.8661333 47.9562589,72.1473985 48.2997943,72.1508286 C49.1321412,72.1594037 51.9077702,71.1646852 53.1400538,70.619305 C54.536414,70.0018935 56.9121063,68.7499202 58.9203355,67.5734083 C61.1473334,66.271699 63.0598512,65.3164262 64.4562114,64.8156368 C66.0320304,64.2462462 67.7497072,63.7008661 69.8092103,63.8174882 C71.9729704,63.9409705 72.6737142,64.2256658 73.4752967,64.556667 C74.3264441,64.9048185 75.6390568,65.7023084 75.6527299,65.7091685 C75.9467004,65.8875318 76.3244184,65.7949201 76.5021681,65.4999346 C76.6782086,65.2083792 76.5859155,64.8293571 76.2919449,64.6509938 C76.2355436,64.6166931 74.8836208,63.7969078 73.9470169,63.4093106 C72.95743,63.002848 72.0806457,62.7044325 69.8775756,62.5809502 C67.5873398,62.4523228 65.6662763,63.0645892 64.0408925,63.6494151 Z M28.2431397,82.42044 L28.9404653,79.9147783 L27.1749327,78.6353645 L28.1405919,75.1624247 L30.2992246,75.0235071 L31.0512423,72.3223318 L20.8408925,73.3050451 L20,76.3286465 L28.2431397,82.42044 Z M26.2332015,75.2584665 L25.5905681,77.5771898 L22.3158728,75.3768037 L22.3227093,75.3476482 L26.2332015,75.2584665 Z M32.9688875,72.0393515 C33.2594398,71.6123085 33.5517012,70.7153468 33.6303213,70.2488581 C33.7550878,69.5011042 33.8251622,68.7156195 32.5467321,67.8152278 L25.7153347,63.1331905 L27.178351,61.0374214 L34.6404178,66.1619369 C36.3222029,67.347024 37.0178193,68.955724 35.7342618,70.8371141 C35.4659282,71.2298564 35.1155563,71.746081 35.1155563,71.746081 L32.9688875,72.0393515 Z M39.8310492,61.2054945 L39.2431081,59.1028653 L42.1571768,56.9882309 L43.9312549,58.2299141 L46.199272,56.5851984 L37.5989239,50.9718988 L35.0677006,52.8121281 L37.7322361,62.730158 L39.8310492,61.2054945 Z M40.6052856,55.8717451 L38.6620035,57.2832164 L37.4656116,53.5135761 L37.4878304,53.4964258 L40.6052856,55.8717451 Z M50.4020256,49.912009 L46.6316822,46.1492288 L49.5218231,45.4392056 L51.8308593,48.1300908 L52.6802975,44.6622961 L55.3943978,43.9968637 L53.7587593,49.0887937 L57.9392942,53.2597514 L54.9807881,53.9852099 L52.3453078,50.9924791 L51.4001583,54.8650213 L48.5886374,55.5578943 L50.4020256,49.912009 Z M77.0319987,118.914605 L77.0200348,118.91975 L77.3567337,122.210897 L76.8645039,122.432136 L74.6836525,119.96935 L74.6733977,119.974495 L75.9518278,122.840314 L75.3262858,123.121579 L73.7949043,119.684655 L74.8238012,119.219881 L76.748283,121.437417 L76.7568286,121.432272 L76.4047476,118.511573 L77.4097167,118.06395 L78.9359709,121.499159 L78.3104289,121.782139 L77.0319987,118.914605 Z M80.8621617,119.559457 C81.0211109,119.561172 81.347555,119.525157 81.6586169,119.329643 C81.90815,119.166715 82.051717,118.88202 81.8483304,118.563024 C81.7047634,118.33664 81.5099225,118.319489 81.1287862,118.3435 L80.7288495,118.365795 C80.304985,118.391521 79.9460674,118.269753 79.6879886,117.859861 C79.3290711,117.29047 79.6076594,116.697069 80.1409084,116.359208 C80.4776072,116.146544 80.7681595,116.083088 80.8758348,116.052217 L81.1544232,116.558151 C80.9800918,116.592452 80.7442317,116.626753 80.4758981,116.799971 C80.1802184,116.981764 80.1306536,117.233874 80.2673841,117.451683 C80.4194968,117.691788 80.6365564,117.679782 80.8758348,117.667777 L81.3390093,117.643767 C81.843203,117.614611 82.1474284,117.705508 82.4260168,118.151416 C82.8362083,118.799698 82.5712929,119.399959 81.9679696,119.784127 C81.6517803,119.9865 81.3766102,120.096262 81.1544232,120.099692 L80.8621617,119.559457 Z M83.3301472,114.841404 L82.6721317,115.366204 L82.3285963,114.935731 L84.1795854,113.459089 L84.5197025,113.889562 L83.8668144,114.410931 L85.8630796,116.926883 L85.3264124,117.357356 L83.3301472,114.841404 Z M85.4887799,112.270572 L86.8919766,110.876251 L87.2765311,111.265563 L86.3689824,112.176245 L87.0697262,112.887983 L87.9311283,112.028752 L88.3156829,112.421494 L87.4559899,113.277295 L88.2353537,114.067925 L89.1839215,113.121227 L89.5718943,113.51397 L88.134515,114.946021 L85.4887799,112.270572 Z M72.5113467,124.054556 L73.2001266,123.862473 L71.0244026,120.559321 L70.3014401,120.76341 L70.0929261,124.728564 L70.7594873,124.54334 L70.7765786,123.598358 L72.0191169,123.250206 L72.5113467,124.054556 Z M91.118658,111.793793 L91.5493591,111.253558 L90.2897294,110.241689 L90.3871499,110.121636 C90.5460991,109.920978 90.7306852,109.843801 91.0229467,109.958708 L92.2056655,110.433772 L92.6602944,109.860952 L91.2400063,109.346442 C90.8913436,109.21953 90.7426492,109.301851 90.6418104,109.396178 L90.6264282,109.387603 C90.8400696,109.017156 90.7751226,108.572963 90.3939864,108.265972 C89.8590283,107.833784 89.3411616,107.998427 88.9241336,108.519797 L88.1909163,109.437339 L91.118658,111.793793 Z M93.9421427,108.036158 L94.4548821,107.202652 C95.0035132,106.310835 94.8753284,105.345272 93.8002849,104.67984 C92.7457509,104.026413 91.8758031,104.225357 91.262225,105.22522 L90.7477765,106.062156 L93.9421427,108.036158 Z M97.2920399,101.803731 L97.5877196,101.157164 L93.6703909,100.692391 L93.3559107,101.378403 L96.2460516,104.095014 L96.5314765,103.465597 L95.8256053,102.843041 L96.3622725,101.666529 L97.2920399,101.803731 Z M96.2921981,95.0430754 L96.2853616,95.0550806 L99.0062985,96.9210354 L98.8593132,97.4406901 L95.5760722,97.5230116 L95.574363,97.5350168 L98.5807248,98.404538 L98.3893021,99.0665404 L94.7847444,98.0220859 L95.0940972,96.9347556 L98.023548,96.8901648 L98.0286754,96.8798746 L95.5760722,95.2625995 L95.8785884,94.2078548 L99.4848552,95.2523093 L99.2951416,95.9143116 L96.2921981,95.0430754 Z M25.4538376,86.119764 C25.4538376,105.960969 41.5418895,122.104565 61.3165374,122.104565 C63.4614971,122.104565 65.6115841,121.912481 67.706979,121.535174 L67.6505776,121.223038 C65.5739832,121.59863 63.4444058,121.787284 61.3165374,121.787284 C41.7162209,121.787284 25.7683178,105.787751 25.7683178,86.119764 L25.4538376,86.119764 Z M61.3165374,50.450529 C80.9168539,50.450529 96.8613388,66.4517773 96.8613388,86.119764 C96.8613388,88.2206782 96.6784618,90.3233074 96.3178351,92.3744856 L96.6271878,92.4293666 C96.9929419,90.3627531 97.175819,88.2378285 97.175819,86.119764 C97.175819,66.2768441 81.0911853,50.1332481 61.3165374,50.1332481 L61.3165374,50.450529 Z M23.0832727,86.119764 C23.0832727,107.274683 40.2361133,124.485029 61.3165374,124.485029 C63.603355,124.485029 65.897009,124.28094 68.1325526,123.876193 L67.8744738,122.433851 C65.7243868,122.823163 63.5178984,123.020392 61.3165374,123.020392 C41.039405,123.020392 24.5445798,106.465188 24.5445798,86.119764 L23.0832727,86.119764 Z M61.3165374,49.2191361 C81.5936699,49.2191361 98.088495,65.7726247 98.088495,86.119764 C98.088495,88.2978546 97.8987815,90.4759452 97.5244817,92.5991548 L98.9601519,92.8546946 C99.351543,90.6491634 99.5480931,88.3818912 99.5480931,86.119764 C99.5480931,64.9648446 82.3986707,47.7527837 61.3165374,47.7527837 L61.3165374,49.2191361 Z M21.9108087,86.119764 C21.9108087,107.922965 39.5883526,125.659826 61.3165374,125.659826 C63.6751385,125.659826 66.0354486,125.450592 68.332521,125.033839 L68.2795379,124.723419 C65.9978478,125.135026 63.6546289,125.342545 61.3165374,125.342545 C39.7609748,125.342545 22.2269979,107.748032 22.2269979,86.119764 L21.9108087,86.119764 Z M61.3165374,46.8952678 C82.8703909,46.8952678 100.406077,64.4914958 100.406077,86.119764 C100.406077,88.4333421 100.20269,90.7503503 99.8044627,93.0021873 L100.115525,93.0587834 C100.51888,90.786366 100.722266,88.4522075 100.722266,86.119764 C100.722266,64.3165625 83.0447223,46.5797019 61.3165374,46.5797019 L61.3165374,46.8952678 Z M79.4094002,60.8436228 L79.2641241,67.6454396 C79.2624149,67.8546735 79.3649628,68.0536172 79.5375851,68.1719544 C79.549549,68.1822446 81.099731,69.2404193 81.9269505,70.4443718 C82.7302421,71.6208837 82.9302105,73.0134897 82.9319196,73.0272099 C82.9797753,73.3667863 83.289128,73.6034607 83.6292451,73.5571548 C83.9385979,73.514279 84.1607849,73.2484491 84.1607849,72.9448884 C84.1607849,72.9157328 84.1607849,72.8882923 84.1573667,72.8608518 C84.1454028,72.7922505 83.9215066,71.1698303 82.9387561,69.7429237 C82.1987023,68.6607385 81.0313657,67.7346213 80.5049533,67.343594 C80.513499,66.9045458 80.5733186,64.0335823 80.6023738,62.568945 C85.0358601,64.4366148 87.3551511,68.2731413 87.3551511,73.941322 C87.3551511,82.0637134 82.4003798,87.7370392 75.3006488,87.7370392 C68.8572242,87.7370392 66.6558633,82.3569839 65.2013926,78.7965775 L64.710872,77.6286407 C64.228897,76.5413104 63.512771,75.8107068 62.5830036,75.4591253 C60.829435,74.7971229 58.8400063,75.7198101 58.0914069,76.0662466 C57.7820541,76.2085942 57.6470328,76.5756111 57.7888906,76.8860319 C57.9324577,77.1947376 58.2982117,77.3302251 58.6075645,77.1878775 C59.2279791,76.8997521 60.8772907,76.1348479 62.1505934,76.6150568 C62.7692989,76.8500162 63.23931,77.3456604 63.5879728,78.1311451 L64.0614021,79.2647812 C65.5466371,82.8972189 68.033423,88.9735772 75.3006488,88.9735772 C83.1233423,88.9735772 88.5874347,82.7908869 88.5874347,73.941322 C88.5874347,67.0983444 85.3657224,62.5929554 79.4094002,60.8436228 Z" id="Combined-Shape" fill="#FFFFFF"></path>
                </g>
            </g>
        </g>
    </g>
</svg>